<svg xmlns="http://www.w3.org/2000/svg" width="1536" height="1024"><path fill="#4F464D" d="M1320.97 450.231c1.55-.848 1.84-.78 2.49-2.495 2.05 5.089 1.02 13.398 1.02 18.937l-.04 23.154c-.02 4.431.54 9.847-1.26 13.972-.28.647-.25.568-.56 1.068l-.99.807c.66-11.542-.64-22.933-.72-34.412-.05-7.024 1.86-13.945.06-21.031Zm-387.643 384.53 25.362 19.846c3.112 2.472 8.64 5.9 10.409 9.352-.873-.221-1.697-.233-2.349-.871-.779-.762-1.361-1.494-2.469-1.723l-.038.595c2.324 2.192 4.236 3.131 4.687 6.352l-.945-.792c-8.075-7.629-17.352-14.081-25.998-21.059-3.046-2.458-7.771-5.387-9.483-8.841.905-.926.709-1.616.824-2.859ZM647.934 673.82c10.545 1.315 21.763.498 32.401.504l63.718.144-.417 2.243-95.495-.484-.207-2.407ZM188.31 861.099l3.068.486.202 1.643-.138 69.95-3.135-.056.003-72.023Zm644.842 34.52c3.528-4.593 9.743-8.645 14.21-12.547l38.187-33.071-.311.625c-1.265 2.443-2.683 3.913-4.738 5.708 3.025 0 2.767-3.478 6.169-2.541-11.324 11.052-24.012 21.072-36.019 31.41-4.722 4.065-11.109 11.168-16.66 13.556l-.365-.79 1.5-1.868-1.973-.482Z"/><path fill="#BDBF4D" d="m177.701 489.984 5.773.734c2.3.511 4.134 2.315 5.281 4.315 1.574 2.743 1.973 5.649 1.006 8.662-1.295 4.037-4.941 5.674-8.408 7.49-1.281-.011-2.719.002-3.978-.292-3.123-.728-5.933-2.891-7.435-5.74-1.271-2.408-1.591-5.88-.585-8.426 1.531-3.876 4.808-5.191 8.346-6.743Z"/><path fill="#242424" d="M744.053 674.468c.401-1.626.8-3.368 1.716-4.791 2.099-3.262 5.761-4.957 9.481-5.566 3.106-.509 5.812.101 8.348 1.99 2.477 1.844 4.604 4.576 5.059 7.7.569 3.914.038 7.721-2.464 10.858-2.093 2.624-4.809 4.149-8.171 4.554-2.977.358-6.883-.685-9.25-2.529-2.671-2.08-3.749-4.588-4.58-7.768l-.556-2.205.417-2.243Z"/><path fill="#2F515C" d="M1008.07 663.931c1.75-.065 3.66-.192 5.39.161a14.48 14.48 0 0 1 9.45 6.572c1.73 2.805 2.13 6.369 1.25 9.558-1.25 4.601-4.94 6.836-8.77 9.059-2.2.12-4.71.367-6.87-.045-3.06-.58-6.24-3.687-7.78-6.33-1.886-3.237-1.854-6.932-.929-10.464 1.209-4.597 4.419-6.339 8.259-8.511Z"/><path fill="#BDBF4D" d="M454.556 261.18c2.189-.077 5.314-.447 7.379.288 3.372 1.2 6.186 4.323 7.713 7.487 1.39 2.88 1.097 6.983-.066 9.938-1.532 3.896-5.134 6.214-8.826 7.711-2.142.049-4.313.098-6.409-.416-3.228-.792-5.741-2.617-7.351-5.525-1.939-3.502-2.751-7.273-1.493-11.171 1.378-4.267 5.284-6.431 9.053-8.312Z"/><path fill="#242424" d="M1322.62 504.867c3.47 4.343.73 21.583 2.6 22.536 3.81 1.952 7.21 4.453 8.61 8.7 1 3.032.74 7.098-.83 9.884-1.69 2.996-4.6 5.495-7.96 6.362-2.87.744-7.07.303-9.6-1.261-2.56-1.582-5.07-4.841-5.67-7.787-.74-3.668-.13-7.459 1.96-10.576 1.64-2.46 4.2-3.864 6.8-5.104.46-.216 2.77-1.066 2.98-1.332.52-.67.58-18.085.28-19.79l-.16-.825.99-.807Z"/><path fill="#4F464D" d="m892.622 127.476-180.903.185-60.533.057-27.769.431c-2.317-.073-5.342.009-7.292-1.387l.511-1.106c3.496-1.347 7.524-1.092 11.22-1.174l21.609.016 50.558.205 130.161.239 40.821.083c6.156.02 15.393-1.094 21.029 1.025l-.168.78.756.646Z"/><path fill="#242424" d="M808.939 892.102c4.119-1.952 10.22-3.463 14.708-2.055 3.893 1.221 5.285 5.066 9.505 5.572l1.973.482-1.5 1.868.365.79c1.058 6.419 2.122 11.938-1.863 17.573-1.921 2.716-5.484 5.347-8.578 6.521-3.018.433-6.217 1.041-9.209.184-4.448-1.274-8.297-4.421-10.487-8.485-2.02-3.748-3.095-8.33-1.714-12.495l.255-.712c1.253-3.632 4.05-6.4 6.545-9.243Zm76.61-42.101c4.389-5.172 10.781-9.64 15.978-14.054-.742-1.926-1.557-3.987-1.908-6.03-.805-4.691.141-9.785 2.93-13.689 2.619-3.668 6.495-5.973 10.951-6.58 5.325-.725 10.372.474 14.622 3.795 7.844 6.131 3.911 12.914 5.132 20.901l.073.417c-.115 1.243.081 1.933-.824 2.859-3.199-.33-3.666.688-6.329 2.429-8.379 5.481-14.044 3.445-21.941-.886l-17.564 14.63c-3.402-.937-3.144 2.541-6.169 2.541 2.055-1.795 3.473-3.265 4.738-5.708l.311-.625Z"/><path fill="#4F464D" d="m1069.3 576.768 1.45.028c1.46 3.133 2.44 5.635 1.11 9.103-1.74 4.505-5.44 7.199-9.4 9.637-12.16 1.205-24.64.757-36.87.803l-58.321.16-183.899-.281-67.94-.473-25.704-.023c-3.633-.031-8.072.424-11.555-.639l.896-1.786 81.406.084 153.58-.022 97.917.009 29.28-.023c5.17-.012 10.79.373 15.91-.235 3.7-.44 6.98-1.62 9.34-4.659 2.91-3.766 3.36-7.084 2.8-11.683Z"/><path fill="#618743" d="m698.608 758.647 84.76.604-.194 38.476-54.954-.238c-.08-12.619-.853-25.742.562-38.272l-29.393-.48-.781-.09Z"/><path fill="#242424" d="M892.034 126.05c1.218-.753 2.311-1.077 2.867-2.431 1.62-3.944 3.913-7.793 8.099-9.426 2.895-1.129 6.673-1.098 9.552.132 4.492 1.918 6.58 6.175 8.295 10.447l98.953.403 25.52-.136c4.35-.076 9.11-.691 13.41-.036 3.86.588 7.26 2.415 9.97 5.218 2.32 2.403 3.87 5.463 3.68 8.87l-.04.515c-.09 4.014.9 8.367.9 12.548l-.22 63.219-.37 234.779 8.47-.071.76 1.434c-2.11 1.833-6.46 1.699-9.23 1.761l-.1 82.147c0 12.242 1.08 25.452.05 37.584-.18 2.05-.49 2.372-1.85 3.789l-1.45-.028c.81-4.617.32-9.963.33-14.681l.05-27.978V422.757c.02-3.953.33-8.109-.03-12.032-.17-1.911-1.11-3.159-.43-5.096.25-.717.34-.838.46-1.655.52-3.606.1-7.908.11-11.571l-.01-24.733-.08-89.06v-95.286l.16-24.662c.14-6.544.61-13.37-.35-19.872-.18-1.286-.47-2.144-1.3-3.157-2.11-2.606-4.08-5.573-7.33-6.847-1.04-.403-138.38-1.485-140.112-.748-.074.031-1.83 3.832-2.05 4.237-1.211 2.227-2.94 4.036-5.306 5.033-5.541 2.334-12.531 1.629-16.037-3.797-1.784-2.76-1.569-4.797-4.753-6.035l-.756-.646.168-.78Zm77.064 737.909 2.527.616.649-.626c3.387-3.225 8.611-6.279 13.455-6.157 4.712.118 8.984 2.915 12.641 5.633l99.78-107.013c-3.37-6.322-5.74-11.48-3.52-18.634 1.48-4.752 5.11-8.625 9.5-10.94 3.67-1.941 9-2.15 12.95-.845 4.04 1.335 8.17 4.951 9.98 8.843 1.98 4.278 2.34 10.009.65 14.428-1.84 4.821-5.64 8.526-10.36 10.551-1.85.793-5.9 2.208-7.86 1.828-1.42-.275-7.55-3.153-8.37-2.726-.74.38-2.33 2.66-2.94 3.355l-9.62 10.577-87.81 94.012c2.55 6.405 3.83 8.278.95 15.077-1.899 4.483-5.68 7.698-10.2 9.355-4.443 1.629-9.201.999-13.393-1.056-4.395-2.155-7.945-6.024-9.352-10.773-1.159-3.908.495-7.348.174-11.152-.451-3.221-2.363-4.16-4.687-6.352l.038-.595c1.108.229 1.69.961 2.469 1.723.652.638 1.476.65 2.349.871Z"/><path fill="#BDBF4D" d="m659.875 797.21.158-38.686 38.575.123.781.09 29.393.48c-1.415 12.53-.642 25.653-.562 38.272l-68.345-.279Zm-47.988 44.733c-6.187-1.065-12.404-.591-18.642-.332l-.072-39.603 66.264-.009.157 39.769-47.707.175Z"/><path fill="#618743" d="m754.978 801.976 28.133-.025 41.283.061-.165 40.326c-5.739-.335-11.267-.529-16.972.463l-52.567-.395.288-40.43Z"/><path fill="#8CBB59" d="m659.875 797.21 68.345.279 54.954.238-.063 4.224-28.133.025-.288 40.43-142.653-.031-.15-.432 47.707-.175-.157-39.769.458-.165-.02-4.624Z"/><path fill="#4F464D" d="m659.875 797.21 68.345.279 54.954.238-.063 4.224-28.133.025-95.083-.142-.02-4.624Z"/><path fill="#BDBF4D" d="M190.353 709.789c20.327 16.974 32.672 43.309 41.348 67.776 3.202 9.031 6.542 18.777 7.39 28.349 1.252 14.137-3.033 27.526-12.286 38.321-7.689 8.97-17.794 13.727-29.276 15.832-.993.182-4.748.226-5.377.63-.042.027-.512 2.266-.572 2.531l-.202-1.643-3.068-.486-.03-.386-4.905-.381c-12.385-1.671-23.488-7.385-31.195-17.422-9.87-12.855-11.488-27.357-9.271-42.88 3.933-27.537 25.094-73.297 47.444-90.241Z"/><path fill="#242424" d="M189.074 821.979c-6.75-5.874-13.134-12.195-19.307-18.671-2.599-2.726-5.668-5.506-6.393-9.239.542-.302 1.007-.86 1.626-.905 3.961-.289 17.566 20.886 25.138 22.478l15.152-14.794c2.517-2.49 4.571-5.425 7.71-7.17l1.456.391.573 1.5c-4.817 7.053-12.135 13.2-18.267 19.212-2.348 2.301-4.935 5.537-7.688 7.198Z"/><path fill="#618743" d="M190.353 709.789c20.327 16.974 32.672 43.309 41.348 67.776 3.202 9.031 6.542 18.777 7.39 28.349 1.252 14.137-3.033 27.526-12.286 38.321-7.689 8.97-17.794 13.727-29.276 15.832-.993.182-4.748.226-5.377.63-.042.027-.512 2.266-.572 2.531l-.202-1.643-3.068-.486-.03-.386 1.845-1.044c-.347-6.205 1.357-34.291-1.051-37.69 2.753-1.661 5.34-4.897 7.688-7.198 6.132-6.012 13.45-12.159 18.267-19.212l-.573-1.5-1.456-.391c-3.139 1.745-5.193 4.68-7.71 7.17l-15.152 14.794.215-105.853Z"/><path fill="#8CBB59" d="m754.69 842.406 52.567.395.868 4.625 16.211.957-.197 37.474c-4.776.017-11.676-.728-16.23.366l-.217 4.92-53.386.062-67.285.158c-13.247-.021-26.835-.979-40.033.447l-35.106.184-.052-5.171-18.601.48-.026-39.818c5.981.09 12.268.576 18.196-.298l.743-.116-.105-4.696 142.653.031Z"/><path fill="#242424" d="m754.345 886.768 32.815.293c6.766-.023 14.103.432 20.749-.838l-.217 4.92-53.386.062-67.285.158c-13.247-.021-26.835-.979-40.033.447l-35.106.184-.052-5.171 2.327-.354 140.188.299Z"/><path fill="#BDBF4D" d="m612.142 847.071.607.101.441.136c4.406 1.224 10.535.477 15.166.447l30.884-.314.02 38.816-31.364-.053c-4.206-.004-9.696-.647-13.739.265l-2.327.354-18.601.48-.026-39.818c5.981.09 12.268.576 18.196-.298l.743-.116Z"/><path fill="#4F464D" d="m754.69 842.406 52.567.395.868 4.625 16.211.957-.197 37.474c-4.776.017-11.676-.728-16.23.366-6.646 1.27-13.983.815-20.749.838l-32.815-.293.048-39.711-141.644.115-.607-.101-.105-4.696 142.653.031Z"/><path fill="#BDBF4D" d="M653.84 205.053c15.065-1.554 31.487 2.596 43.792 11.591 12.641 9.24 20.803 24.497 23.18 39.806 2.527 16.27-2.204 33.437-12.034 46.529-10.587 14.101-26.047 21.503-43.192 23.864-14.463 1.921-28.974-2.354-40.736-10.817-13.836-9.955-22.678-23.875-25.336-40.794-2.472-15.739 1.14-32.368 10.625-45.247 11.037-14.985 25.583-22.273 43.701-24.932Z"/><path fill="#FEFEFE" d="m679.515 247.811 9.41 8.709-20.188 20.276c-4.705 4.832-9.08 9.855-14.322 14.13l-15.208-15.308-10.162-10.309 8.812-8.638 16.609 16.524 25.049-25.384Z"/><path fill="#242424" d="M1273.87 745.727c.4-.705.85-1.488 1.02-2.289.78-3.637-2.08-10.15-3.08-13.723-9.77-35.161-27.53-65.161-49.62-93.881L1198 652.727c-4.02 2.773-8.16 6.307-12.62 8.284-1.53-1.049-1.48-.914-1.83-2.725 3.47-3.898 8.03-6.598 12.22-9.656l23.45-16.812-45.84-46.912c12.11 6.698 23.33 17.654 33.13 27.359 29.13 28.841 51.94 63.316 66.5 101.697 2.43 6.414 6.11 13.659 6.15 20.575 2.77-3.576 1.87-9.444 2.21-13.916.36-4.609.96-9.028 2.16-13.499 2.2-8.169 5.84-15.085 10.27-22.205l-.76-3.068.55-.161c4.72-1.623 9.58-8.598 13.37-12.031 19.66-17.786 45.62-27.164 71.93-28.601-2.55 17.143-7.86 32.991-15.55 48.487-1.9 3.836-4.08 9.054-7.56 11.666-.6.443-1.17.693-1.85.975-.34 1.623-.5 1.718-1.71 2.875-.33 6.302-11.89 17.251-16.71 21.583-12.3 11.076-30.3 20.677-47.1 19.771 1.43 5.318-2.76 13.632-3.53 19.268-.89 6.498-.64 13.256-.63 19.802l105.19.088.02 28.774-211.11-.42-.04-27.803 101.85-.458c-.57-8.232-1.19-35.155-5.95-39.648l-.34-.289Z"/><path fill="#8CBB59" d="M1288.41 746.413c2.62-2.255 3.78-5.696 5.24-8.755 2.04-4.268 4.24-8.431 6.7-12.47 8.15-13.35 17.89-25.549 27.83-37.584l24.04 17.455c-.33 6.302-11.89 17.251-16.71 21.583-12.3 11.076-30.3 20.677-47.1 19.771Z"/><path fill="#BDBF4D" d="m1293.04 681.849.55-.161c4.72-1.623 9.58-8.598 13.37-12.031 19.66-17.786 45.62-27.164 71.93-28.601-2.55 17.143-7.86 32.991-15.55 48.487-1.9 3.836-4.08 9.054-7.56 11.666-.6.443-1.17.693-1.85.975-.18-2.4-.36-2.48-2.18-4.054l-19.37-14.433 21.55-21.852c3.32-3.235 8.42-6.646 10.94-10.346-10.04 4.993-18.84 12.52-27.04 20.085-14.83 13.678-28.3 28.965-39.17 45.988-5.6 8.773-9.88 17.874-14.81 26.985.63 2.908.78 3.253-.39 5.95l-.81-.324c0-3.783.04-12.229-2.82-15.042l-.67-.604c2.77-3.576 1.87-9.444 2.21-13.916.36-4.609.96-9.028 2.16-13.499 2.2-8.169 5.84-15.085 10.27-22.205l-.76-3.068Z"/><path fill="#4F464D" d="M1273.87 745.727c-2.51-3.39-13.62-6.221-18.06-8.462-15.2-7.661-29.94-16.597-43.04-27.499-45.15-37.574-63-94.789-68.26-151.333l42.7 9.426c38.03 10.298 72.79 35.762 92.35 70.095 5.66 9.94 10.42 21.843 12.95 33.006.77 3.419 1.73 6.897.71 10.35l-.18.539.76 3.068c-4.43 7.12-8.07 14.036-10.27 22.205-1.2 4.471-1.8 8.89-2.16 13.499-.34 4.472.56 10.34-2.21 13.916-.04-6.916-3.72-14.161-6.15-20.575-14.56-38.381-37.37-72.856-66.5-101.697-9.8-9.705-21.02-20.661-33.13-27.359l45.84 46.912-23.45 16.812c-4.19 3.058-8.75 5.758-12.22 9.656.35 1.811.3 1.676 1.83 2.725 4.46-1.977 8.6-5.511 12.62-8.284l24.19-16.893c22.09 28.72 39.85 58.72 49.62 93.881 1 3.573 3.86 10.086 3.08 13.723-.17.801-.62 1.584-1.02 2.289Z"/><path fill="#868A93" d="M416.575 820.155c.876-3.934 3.163-8.196 4.584-12.066l7.69-20.392c1.45-3.878 2.672-8.276 4.815-11.821l80.441.113c-2.131 6.139-1.151 14.48-1.155 20.957l.035 38.46-.039 97.904-96.53.217.159-113.372Z"/><path fill="#242424" d="M1320.97 450.231c-.99-.655-5.56 1.731-7.02 2.31-14.2 5.63-28.87 7.167-43.87 4.471-19.52-3.508-36.95-15.424-48.17-31.655-11.18-16.166-15.32-37.069-11.62-56.345 4.1-21.426 15.85-38.1 33.72-50.271 17.01-11.594 36.34-14.052 56.27-10.272 19.75 3.748 36.98 17.238 48.04 33.693 10.95 16.293 13.93 36.621 10.04 55.67-4.36 21.431-16.74 38.012-34.9 49.904-.65 1.715-.94 1.647-2.49 2.495Z"/><path fill="#7A9E50" d="M1274.3 322.953c14.51-2.098 31.35 1.584 43.49 9.723 12.83 8.605 23.2 23.526 26.12 38.721 3.04 15.787-.74 32.111-9.8 45.33-9.86 14.409-23.96 22.813-40.97 25.885l-1.26.546c-1.81.505-4.35.265-6.25.259-8.81-.027-17.86-1.718-25.75-5.808-14.82-7.682-27.11-20.536-32.05-36.745-4.64-15.24-4.01-31.837 3.58-46.041 9.62-18.008 24.17-26.125 42.89-31.87Z"/><path fill="#FEFEFE" d="M1307.69 358.96c1.17-.087 2.2-.169 3.36.079 3.12.666 8.84 8.199 10.5 10.75-4.25 6.738-11.28 12.517-16.94 18.144-7.67 7.623-15.21 15.798-23.45 22.792-.87.096-2.35.478-3.16.35-2.15-.34-4.17-2.724-5.73-4.172-3.3-3.075-6.63-6.437-10.72-8.447l-.55-.259c-1.69-5.206-10.42-6.989-11.35-12.603.78-4.825 6.53-9.343 10.07-12.494 6.54 3.821 12.02 9.887 17.85 14.742 7.1-5.507 13.5-12.14 20-18.336 3.44-3.282 7.72-6.41 10.12-10.546Z"/><path fill="#868A93" d="m313.493 775.902 115.361-.239c-5.389 12.474-10.909 24.798-13.889 38.102l1.61 6.39-.159 113.372c-5.126-.549-10.621-.188-15.787-.198l-28.779-.043-90.275.324 18.848-77.796c4.391-17.887 10.727-36.625 12.929-54.862 1.016-8.417.678-16.612.141-25.05Zm101.472 37.863L371.85 933.286l28.779.043c5.166.01 10.661-.351 15.787.198l.159-113.372-1.61-6.39Z"/><path fill="#BDBF4D" d="m765.089 518.989-167.427-.062 37.645-42.846 63.687-72.336 35.212-40.292c5.764-6.559 11.494-14.139 18.099-19.832l73.795 94.28-61.011 81.088Z"/><path fill="#242424" d="m826.1 437.901 34.868-45.101c4.072-5.293 9.059-13.978 14.145-17.832l36.249 35.416 90.188-149.798-.29 258.415-236.171-.012 61.011-81.088Zm457.4-364.758 41.81-.282c3.72.17 5.72.92 8.22 3.658 1.41 3.321.74 8.598.75 12.244l.05 26.028.09 97.498.09 34.237c.01 5.111.7 11.699-.49 16.636-1.83 7.539-16.06 5.421-21.94 5.392l-111.43-.211-18.59-.035c-1.03-.002-4.67-.379-5.47-.011-.88.408-3.25 3.9-3.99 4.779l-12.31 13.94c-2.5 2.781-4.9 5.855-8.1 7.858-.72 3.633-6.88 8.618-9.67 11.295l-.25-37.653-16.23-.059c-2.93-.03-6.3.246-8.98-1.152-1.75-.917-3.19-2.462-3.77-4.366-1.3-4.27-.38-11.573-.38-16.059l.02-40.795.07-86.133-.12-38.299c.05-2.09.2-3.62 1.16-5.51 1.34-1.157 2.71-2.392 4.52-2.661 4.97-.738 10.9-.145 15.96-.15l32.69-.015 116.29-.174Z"/><path fill="#FEFEFE" d="M1216.17 126.405c11.35-1.087 23.25-.438 34.66-.359 2.93.02 8.49-.606 11.09.348 1.56.57 1.67 1.635 2.24 3.013l-2.49 1.789c-2.52 1.766-8.91.811-12.14.876-10.25.205-20.57 1.148-30.78-.112-2.44-1.904-2.17-2.624-2.58-5.555Zm36.64-18.754c7.02-.533 13.99.167 21.01.185 7.37.019 22.1-2.446 27.95 1.876l.31 2.44c-3.17 2.363-5.38 1.876-9.27 2.048-9.43.812-19.09 0-28.55-.108-5.31-.062-10.62.756-15.88-.15-1.54-1.657-1.51-1.589-1.42-3.85 1.8-2.228 3.11-1.983 5.85-2.441Zm-5.13 54.763 1.8-.184c5.77-.484 46.29-1.401 50.27.657.69.358 1.51 1.261 2.13 1.778l-.26 2.11-3.2 1.585-.39.159c-4.03.785-45.94 1.128-48.53.137-.68-.26-1.53-1.013-2.16-1.429-1-2.303-.51-2.544.34-4.813Zm-55.64 34.507c3.05-.146 6.45-.543 9.47-.175 2.4.291 2.93.693 4.36 2.428l-.25 2.353c-4.97 4.261-41.66 1.779-50.06 1.747-3.17-.184-9.68.263-12.18-1.551-.25-1.927-.23-2.279.55-4.05 4.84-1.102 10.17-.509 15.12-.479 10.94.067 22.08.545 32.99-.273Zm-48.51-70.516c12.54-1.358 25.76-.481 38.39-.469 6.65.007 14.46-.786 20.99.151 2.04.292 1.98.58 3.18 2.194l-.31 1.876-2.89 1.501c-3.06 1.162-8.82.752-12.15.827-14.21.32-29.27.382-43.43-.675-2.5-.187-2.46-.287-4.05-2.16l.27-3.245Zm5.03-18.755c10.97-.666 22.25.308 33.27.349l36.21.108c3.93.012 10.54-.76 14.23.294.52.149 1.56 1.144 2.05 1.501l.19 1.875c-3.03 2.596-4.55 2.145-8.45 2.383l-62.44-.118c-5.53-.115-15.2.94-20.17-1.139-.28-2.122-.2-2.47.67-4.428l4.44-.825Zm-1.63 54.763c8.44-.867 17.76.31 26.35.295l52.85-.679c3.14.004 6.56-.017 8.9 2.338-.13 2.064-.48 2.363-1.65 3.988l-4.28.427c-17.51 1.83-35.52.089-53.09.004-6.79-.032-26.4 1.745-31.35-.852-1.28-.668-1.13-1.16-1.53-2.519 1.14-2.148 1.5-2.073 3.8-3.002Zm-4.39 17.254c4.34-.858 8.65-.459 13.04-.448l20.55.015 81.25.103c1.53 1.508 1.62 1.36 1.69 3.653l-2.66 1.819c-1.51.763-3.71.467-5.43.486l-14.21.155-91.89-.367c-1.99-1.678-1.85-2.996-2.34-5.416Z"/><path fill="#242424" d="m823.851 933.262 395.049.154c-5.69-3.329-11.66-6.239-16.38-10.958-6.45-6.452-10.61-14.817-12.42-23.724-1.84-9.043-.52-20.185-.45-29.508l.07-49.976 187.92.686.08 43.501c.11 13.157 1.92 28.996-1.97 41.652-4.48 14.559-14.78 21.891-27.47 28.786 6.72.617 13.74.206 20.49.184l36.19-.165c9.05-.084 27.51-2.958 34.79 2.576 1.58 2.294 2.25 4.929 1.56 7.685-.49 1.996-2.25 3.84-4.08 4.692-2.34 1.084-5.44.77-7.96.789l-17.25-.003-60.04.029-262.6.074-768.521-.101H157.838l-40.247-.031c-5.94-.008-14.169 1.006-19.716-.76-1.813-1.473-3.724-3.063-4.178-5.489-.438-2.34-.01-5.23 1.462-7.126 1.03-1.328 2.65-2.108 4.275-2.409 6.963-1.286 14.727-.493 21.812-.4l43.95.147c7.257.009 15.392.746 22.548-.35l.563-.095 3.135.056 64.008.251c8.434.002 17.801-.79 26.125.181l90.275-.324 28.779.043c5.166.01 10.661-.351 15.787.198l96.53-.217 80.367.13-.227-41.327 18.796-.119 35.106-.184c13.198-1.426 26.786-.468 40.033-.447l67.285-.158 53.386-.062 1.247.959c-2.495 2.843-5.292 5.611-6.545 9.243l-.255.712c-1.381 4.165-.306 8.747 1.714 12.495 2.19 4.064 6.039 7.211 10.487 8.485 2.992.857 6.191.249 9.209-.184l.302 10.409Z"/><path fill="#4F464D" d="m807.692 891.143 1.247.959c-2.495 2.843-5.292 5.611-6.545 9.243l-.255.712c-1.381 4.165-.306 8.747 1.714 12.495 2.19 4.064 6.039 7.211 10.487 8.485 2.992.857 6.191.249 9.209-.184l.302 10.409-47.641-.042c-7.373-.013-15.815.828-22.983-.507.365-.453.871-.823 1.096-1.361.537-1.28-.003-6.424-.003-8.106l-.014-32.041 53.386-.062Z"/><path fill="#BDBF4D" d="m611.882 891.994 35.106-.184 12.125.245.135 40.561-36.783.056c-9.739-.071-19.472-.522-29.152.768l-.227-41.327 18.796-.119Z"/><path fill="#8CBB59" d="M646.988 891.81c13.198-1.426 26.786-.468 40.033-.447l67.285-.158.014 32.041c0 1.682.54 6.826.003 8.106-.225.538-.731.908-1.096 1.361l-93.979-.097-.135-40.561-12.125-.245Z"/><path fill="#242424" d="m313.493 775.902-.075-58.362c-.03-2.111-7.25-4.091-9.304-4.933l-81.667-33.322c-13.448-5.373-27.728-9.595-40.667-16.079-5.004-2.507-9.876-5.789-13.946-9.645-7.738-7.331-11.568-18.231-11.758-28.729-.194-10.712 4.142-21.75 11.756-29.341 7.167-7.144 15.686-13.048 23.564-19.386l39.346-31.958 67.413-54.593 29.974-23.94c3.372-2.453 7.299-4.522 11.203-5.995 10.11-3.814 21.031-3.83 31.669-3.843l29.488.065 7.087-40.446c-2.929-1.397-6.11-2.856-8.292-5.341-3.596-4.095-5.394-10.714-2.914-15.776.489-.999 2.544-3.868 2.614-4.762.123-1.595-.712-4.294-.975-5.94-.873-5.479-1.935-10.892-1.463-16.467.645-7.632 4.539-14.88 10.471-19.726 13.872-11.331 32.061-1.343 47.483-.09 12.713 1.034 21.014-1.746 30.744-10.071l.598.248c1.39 2.561 2.954 5.224 3.976 7.955 2.5 6.676 2.294 14.593-.796 21.039-3.82 7.971-9.385 10.913-17.419 13.729-.001 13.14 3.217 30.472-2.665 42.625-4.61 9.527-13.031 14.13-22.599 17.556l.71 14.883 31.409.269c24.242.591 41.237 15.614 56.986 32.207l-.203-210.37c-7.727.109-18.703 1.685-25.451-2.467l25.405-.369c-1.003-9.978-.298-20.336-.281-30.368l.048-56.915c-10.497-1.402-20.323-4.027-29.04-10.353-12.434-9.024-20.887-22.533-23.264-37.732-2.345-14.991 1.068-30.834 10.227-43.07 9.657-12.901 23.741-20.239 39.494-22.395 13.573-1.859 29.848 2.59 40.58 10.97 12.068 9.421 20.494 23.05 22.345 38.361 1.822 15.079-2.837 30.854-12.233 42.717-11.413 14.409-27.263 19.462-44.787 21.435l-.323 87.367c5.478-.185 12.985-.986 18.164.583l.336.94c-2.445 1.779-14.898 1.019-18.518 1.11l.42 152.966-.038 44.824c.035 5.201-.62 10.544-.123 15.716.572 5.944 7.548 14.098 10.19 20.025 6.747 15.136 10.492 30.27 11.596 46.785l91.213-.09 21.72.005c2.753.008 6.634-.458 9.245.344 2.437.748 4.871 3.386 6.035 5.593 1.238 2.347 1.351 4.386.536 6.865-2.392 7.275-5.721 16.576-9.67 23.087l-.896 1.786c-1.195 5.6-3.647 10.992-5.713 16.328l-10.285 26.245c-4.642 11.864-8.544 24.821-14.239 36.164l.207 2.407-.731.667c-2.087 2.074-2.984 7.119-3.921 9.985-2.936 8.971-6.001 17.83-9.85 26.459-.966 2.166-2.189 5.518-4.389 6.674-.984.517-3.409.66-4.5.719l-109.494.082c.013 9.499 1.723 48.991-1.151 55.176l-80.441-.113c-2.143 3.545-3.365 7.943-4.815 11.821l-7.69 20.392c-1.421 3.87-3.708 8.132-4.584 12.066l-1.61-6.39c2.98-13.304 8.5-25.628 13.889-38.102l-115.361.239Zm187.411-213.987c-3.138 2.079-5.941 3.879-7.975 7.147-2.281 3.666-3.663 8.48-5.198 12.512l-8.47 22.105-31.708 80.828-6.197 16.576c-1.017 2.853-1.993 6.711-3.558 9.22-.717 1.15-3.119 1.758-4.354 1.996l.732 2.25c4.116 1.225 10.16.497 14.492.519l33.704.14 135.253.512 10.124-.021 39.655-103.834c5.042-13.191 11.35-26.09 15.789-39.475.773-2.331 1.262-4.66 1.015-7.127-1.204-1.826-1.43-2.507-3.724-2.919-5.286-.952-11.745-.271-17.163-.284l-38.325-.084-124.092-.061Zm-68.883-190.781c-1.114 5.925-1.323 18.98-6.265 22.456-1.262.888-2.745 1.636-4.259 1.213-5.858-1.636-8.119-9.324-15.668-5.059-3.25 1.836-5.161 4.266-5.897 7.969-.495 2.492.46 5.94 1.87 8.013 2.789 4.102 9.499 4.382 13.98 5.146-1.186 1.853-2.738 4.009-3.363 6.124-1.962 6.642-5.461 40.708-9.294 43.717-.218.171-1.531.492-1.875.574l-2.44.451c-.315 3.489 2.149 7.193 4.315 9.76 5.314 6.295 13.816 11.74 22.202 12.272 8.331.53 15.994-3.083 22.283-8.231 3.61-4.87 5.546-9.492 7.559-15.136l-11.94.133-2.338-19.452c-7.521-1.417-14.481-3.535-19.016-10.198-1.115-1.639-1.808-2.817-1.5-4.812 1.122-.459 1.8-1.032 3.002-.49 1.406.634 3.047 2.835 4.202 3.983 5.577 5.545 13.142 7.063 20.675 4.943 6.647-1.872 12.318-6.049 15.66-12.134 3.89-7.085 3.38-14.634 3.226-22.409l-.48-20.104c-5.246-1.192-10.599-2.311-15.723-3.946-6.396-2.04-12.086-4.593-18.916-4.783Zm-71.447 315.3-15.78 32.083 23.272 17.065c4.608 3.352 9.965 7.917 15.629 9.156 6.625 1.451 15.663-.176 22.43-.61 1.791-1.143 3.909-2.36 4.378-4.616l.122-1.314c-4.851-2.446-13.353.698-15.275-4.894 2.448-2.273 4.699-2.139 8.011-2.004 4.45.183 11.756 2.053 15.327-.944 1.455-1.221 1.272-2.057 1.515-3.804-.648-.509-1.738-1.645-2.453-1.929-4.554-1.808-15.702 2.944-18.406-2.617 1.901-1.951 3.961-2.502 6.734-2.538l.984.004c6.898-.005 16.585 1.585 21.766-3.422-1.211-1.951-1.366-3-3.647-3.602-2.645-.699-6.65-.136-9.477-.089l-21.155.228c-2.936.004-6.37.454-8.974-1.038l-.544-2.251c2.854-2.865 6.188-2.421 10.057-2.428l39.809.26 5.572-15.538-47.572-.024c-6.879.001-15.101.993-21.78-.307-3.546-.69-7.384-3.112-10.543-4.827Zm-47.778-117.725-65.522 52.602 20.546 8.835 44.896 20.189.08-81.626Zm38.018 108.26-21.061 43.802 7.274 3.928 21.463-44.576-7.676-3.154Z"/><path fill="#BDBF4D" d="M535.853 87.952c8.105-.634 16.291 1.395 23.303 5.574 10.42 6.21 17.837 15.533 20.768 27.386 2.384 9.641.041 22.357-5.233 30.818-7.411 11.89-19.098 17.516-32.263 20.709-9.931.326-19.58-1.928-27.856-7.529-8.574-5.804-15.241-16.03-17.045-26.225-2.092-11.822.296-23.219 7.315-33.097 7.872-11.081 18.025-15.334 31.011-17.636Z"/><path fill="#FEFEFE" d="M560.274 114.913c2.639 2.98 4.73 6.563 6.926 9.883l-29.905 23.99-13.43-8.267-8.81-5.84c1.119-3.12 4.87-6.649 7.009-9.256l14.362 8.99 23.848-19.5Z"/><path fill="#242424" d="M573.388 625.064c2.106.22 4.422.37 6.381 1.217 2.318 1.002 4.121 3.058 4.856 5.475 1.022 3.363.178 7.216-1.456 10.237-3.279 6.062-9.177 8.962-15.512 10.839-2.779-.109-5.66-.224-8.157-1.603-2.162-1.195-3.849-3.657-4.377-6.071-.779-3.558.559-7.491 2.462-10.475 3.563-5.584 9.583-8.238 15.803-9.619Z"/></svg>
