<svg xmlns="http://www.w3.org/2000/svg" width="1536" height="1024"><path fill="#242424" d="m1180.08 483.86 1.54-1.601c.9-2.7 2.04-12.735.51-15.266-.51-.85-3.2-2.028-4.1-2.54-5.49-3.122-9.68-7.133-11.83-13.201-2.01-5.665-1.52-12.525 1.24-17.878 2.54-4.93 7.46-9.136 12.76-10.813 6.44-2.036 12.73-1.862 18.69 1.483 4.72 2.642 9.24 8.544 10.71 13.735 2.32 8.259-.6 19.284-7.64 24.583-1.86 1.398-7.01 3.382-8 5.307-.18.331.12 2.475.15 2.979.22 4.521 1.18 8.429-1.06 12.573.72 1.01 1.3 2.044 1.54 3.273 1.36 7.175.38 16.319.3 23.72-.09 8.528.71 17.898-.68 26.28-1.87 11.27-8.79 21.785-18.04 28.366-5.83 4.15-12.7 6.91-19.79 7.968-5.93.887-12.54.34-18.54.326l-34.14-.053-18.45.071c-2.64.01-6.09.478-8.63-.107-2.27-.524-3.62-1.892-5-3.676-.53-2.384-.49-2.913.21-5.251 1.86-2.233 3.84-3.078 6.74-3.315 5.86-.479 11.99.297 17.88.338l41.41.047c6.14-.008 13.13.617 19.13-.649 6.88-1.451 13.17-4.81 17.86-10.094 8.41-9.493 7.69-22.28 7.86-34.181.11-8.315.2-16.674-.4-24.972-.2-2.738-.23-5.35-2.23-7.452Z"/><path fill="#DE9A93" d="M1184.05 433.979c2.68-.432 5.63-.44 8.17.669 2.66 1.163 5.01 3.954 5.9 6.699.85 2.635.21 5.654-1.15 8.009-1.73 2.985-4 4.025-7.21 4.882-.72.291-1.63.376-2.4.404-2.44.089-4.56-1.193-6.29-2.787-1.94-1.777-3.63-4.673-3.55-7.371.13-4.663 3.34-7.628 6.53-10.505Z"/><path fill="#242424" d="m172.965 408.345 19.816-.128c2.744.005 6.529-.304 9.03.926 5.93 2.915 6.497 12.398 8.248 18.086 8.589 7.704 16.241-4.543 25.1-1.428 5.657 1.989 14.761 13.24 17.428 18.697.259.528 1.384 2.459 1.367 2.98-.11 3.419-3.174 9.173-4.348 12.574-.488 1.415-1.993 5.866-1.137 7.142 2.772 4.135 9.784 3.677 14.031 4.773 2.287.59 4.168 1.948 5.295 4.024 3.163 5.829 1.881 16.285 1.583 22.883-.13 2.891-.008 6.214-.939 8.966-2.709 8.02-13.586 4.383-19.798 7.88-1.48.833-1.271 2.582-1.097 4.177.699 6.433 6.478 13.604 4.346 20.214-1.692 5.248-11.538 13.056-16.531 15.307-5.767 2.601-11.15-2.81-16.373-4.57-3.044-1.026-5.755-.918-8.611.55-2.329 3.559-2.188 7.842-2.854 11.926-.648 3.972-1.754 5.18-4.893 7.46-7.965 1.691-19.482 3.058-27.353.88-11.944-3.306-6.634-12.14-11.482-20.053-3.818-6.234-17.584 5.243-23.818 3.528-5.146-1.415-13.349-10.684-15.98-15.417-4.035-7.257 1.321-12.552 2.738-19.47.22-1.075-.031-2.476-.61-3.406-2.912-4.672-9.225-4.182-13.998-5.454-2.764-.736-4.126-2.655-5.417-5.018-.57-7.198-.937-14.454-.725-21.675.083-2.834.021-6.544.978-9.186 2.65-7.32 12.425-5.499 18.289-8.085 4.601-7.255-4.559-14.639-2.766-23.004 1.127-5.258 11.455-14.849 16.009-17.738 5.782-3.67 16.256 1.166 22.382 2.476 6.876-6.533 3.943-15.288 12.09-20.817Zm12.379 12.117c-1.841.123-5.198-.227-6.422 1.255-1.039 1.257-1.535 3.785-2.069 5.382-2.661 7.957-6.449 12.802-15.07 14.372-4.412.804-8.682-.878-12.823-2.226-1.018-.332-4.431-1.769-5.21-1.424-2.531 1.119-7.528 8.147-9.176 10.353 3.068 7.801 6.585 15.223 2.926 23.456-1.581 3.557-4.394 6.991-8.125 8.403l-10.942 2.978.04 16.989c5.744.942 13.254 1.821 16.866 6.801 3.299 4.55 4.303 10.426 3.278 15.883-.745 3.97-2.263 7.896-3.56 11.714l8.036 8.302c6.574-3.299 13.44-7.356 21.054-4.913 4.13 1.325 8.285 3.75 10.415 7.676 2.112 3.894 1.211 11.246 3.674 14.254l16.101-.132 1.579-.609c1.223-6.778 2.153-13.554 8.299-17.751 2.972-2.03 6.639-3.506 10.155-4.243 5.892 1.595 12.719 5.319 18.518 6.085l6.85-6.872c-2.778-7.934-6.644-18.025-2.748-26.155 1.414-2.952 3.581-4.796 6.088-6.777l14.144-2.015-.17-17.339c-6.861-1.193-14.062-1.581-18.385-7.804-2.545-3.662-3.832-8.919-3.048-13.314.884-4.954 3.618-9.985 5.845-14.485-3.5-3.437-6.93-7.111-10.834-10.089-6.728 2.659-15.138 6.524-22.296 3.305-4.921-2.213-8.193-5.982-10.005-11.021l-3.579-9.994-9.406-.045Z"/><path fill="#BCD7C2" d="m185.344 420.462 9.406.045 3.579 9.994c1.812 5.039 5.084 8.808 10.005 11.021 7.158 3.219 15.568-.646 22.296-3.305 3.904 2.978 7.334 6.652 10.834 10.089-2.227 4.5-4.961 9.531-5.845 14.485-.784 4.395.503 9.652 3.048 13.314 4.323 6.223 11.524 6.611 18.385 7.804l.17 17.339-14.144 2.015c-2.507 1.981-4.674 3.825-6.088 6.777-3.896 8.13-.03 18.221 2.748 26.155l-6.85 6.872c-5.799-.766-12.626-4.49-18.518-6.085-3.516.737-7.183 2.213-10.155 4.243-6.146 4.197-7.076 10.973-8.299 17.751l-1.579.609-16.101.132c-2.463-3.008-1.562-10.36-3.674-14.254-2.13-3.926-6.285-6.351-10.415-7.676-7.614-2.443-14.48 1.614-21.054 4.913l-8.036-8.302c1.297-3.818 2.815-7.744 3.56-11.714 1.025-5.457.021-11.333-3.278-15.883-3.612-4.98-11.122-5.859-16.866-6.801l-.04-16.989 10.942-2.978c3.731-1.412 6.544-4.846 8.125-8.403 3.659-8.233.142-15.655-2.926-23.456 1.648-2.206 6.645-9.234 9.176-10.353.779-.345 4.192 1.092 5.21 1.424 4.141 1.348 8.411 3.03 12.823 2.226 8.621-1.57 12.409-6.415 15.07-14.372.534-1.597 1.03-4.125 2.069-5.382 1.224-1.482 4.581-1.132 6.422-1.255Zm-4.832 34.995c-10.106 3.56-18.8 8.21-23.661 18.284-4.037 8.369-5.043 18.098-1.888 26.942 3.077 8.629 9.463 16.279 17.889 20.117 6.905 3.145 13.837 3.217 21.244 2.442 9.799-3.313 18.105-7.961 22.97-17.597 3.927-7.779 5.343-18.206 2.575-26.549-2.929-8.834-9.617-16.859-18.008-20.951-6.303-3.074-14.277-2.984-21.121-2.688Z"/><path fill="#242424" d="M180.512 455.457c6.844-.296 14.818-.386 21.121 2.688 8.391 4.092 15.079 12.117 18.008 20.951 2.768 8.343 1.352 18.77-2.575 26.549-4.865 9.636-13.171 14.284-22.97 17.597-7.407.775-14.339.703-21.244-2.442-8.426-3.838-14.812-11.488-17.889-20.117-3.155-8.844-2.149-18.573 1.888-26.942 4.861-10.074 13.555-14.724 23.661-18.284Zm5.12 12.111c-6.204.967-12.172 3.573-16.043 8.748-3.451 4.613-4.882 11.283-3.933 16.95.964 5.755 5.232 11.252 9.983 14.446 3.955 2.659 8.125 3.372 12.8 3.625 6.163-.936 12.079-3.26 15.969-8.397 3.757-4.962 5.068-11.195 4.058-17.31-.846-5.128-4.179-10.393-8.411-13.404-4.463-3.177-9.122-4.113-14.423-4.658ZM1344.39 527.004l2.61.193c5.64 4.413 6.55 12.788 7.96 19.397 1.9 1.143 7.78 4.455 9.89 4.58 2.12.126 9.4-5.17 11.68-6.353 2.34-1.215 4.65-1.799 7.22-2.306 3.71.91 6.73 4.371 9.4 6.955 5.53 5.344 12.43 11.284 16.47 17.842 1.22 7.749-3.87 13.039-8.12 18.943.54 1.834 3.21 10.89 4.36 11.558.55.316 3.39.28 4.16.347 4.12.36 10.5.259 13.86 2.892 1.47 1.158 2.36 3.287 2.63 5.096.47 3.144.24 6.656.34 9.849.19 6.581 1.84 20.295-2.29 25.498-3.58 4.511-13.34 4.074-18.6 4.449l-4.53 12.029 7.52 11.565c1.17 2.042 1.73 4.469.91 6.752-1.74 4.795-21.07 23.41-25.74 25.785-6.83.85-12.4-4.251-17.94-7.693-3.61.661-7.28 2.44-10.71 3.777l-2.59 14.424c-.66 2.868-2.1 5.038-4.76 6.468-3.25 1.751-8.31 1.505-11.95 1.468-8.27-.084-18.51.396-26.5-1.801l-.05-.192c-3.07-6.424-3.29-12.453-3.97-19.45-2.89-1.238-8.31-4.887-11.13-5.226-.06-.007-1.42.88-1.52.941-3.91 2.429-8.17 6.104-12.54 7.482-2.26.712-4.56.661-6.64-.561-3.85-2.262-7.68-6.73-10.7-10.031-4.54-4.968-10.27-10.174-11.96-16.891.63-6.304 5.61-10.525 9.64-14.988-.61-1.473-4.59-13.391-5.37-13.967-.14-.097-2.83-.036-3.27-.05-4.78-.144-12.69.37-16.3-3.031-3.91-3.689-2.79-13.736-2.83-18.928-.05-5.899-1.65-18.637 3.07-22.752 3.82-3.327 15-2.42 19.81-2.446 1.24-4.708 2.84-9.007 4.75-13.465-3.35-3.048-7.77-6.7-9.5-11.029-.97-2.453-.93-5.07.16-7.478 1.49-3.294 4.55-6.101 7.04-8.667 4.53-4.673 11.29-12.629 17.39-15.072 7.37-.306 13.47 5.145 19.27 9.108 1.67-.58 7.73-2.626 8.58-3.848 3.63-5.188 2.13-14.031 6.5-19.504 1.94-2.413 28.15-1.136 33.28-1.578l1.01-.091Zm-17.27 12.753-8.14.28-4.52 16.854c-6.29 3.02-12.89 6.86-19.51 8.99l-17.81-10.408-13.77 14.529c.89 2.592 5.27 6.065 7.17 8.269.84.981 4.12 5.123 4.1 6.073-.02 1.378-2.65 5.969-3.28 7.551-2.27 5.643-4.27 11.39-5.8 17.277l-20.6 2.362.03 21.475c5.47.137 15.56-.396 19.72 3.617 2.73 2.643 3.67 9.809 5.21 13.408 1.46 3.424 3.44 6.787 5.25 10.034l-11.24 14.179 14.61 14.596c4.72-3.246 9.87-6.99 15.34-8.767 2.87 1.389 5.76 2.878 8.73 4.049 4.4 1.74 12.35 3.235 14.25 8.056 1.88 4.756.38 11.62 3.87 15.617 2.23.312 4.33.462 6.58.416l13.54.025 3.42-18.928 23.43-9.552c4.5 3.195 8.99 6.775 13.85 9.393l15.17-15.126c-2.97-4.697-8.06-10.876-9.74-16.028 1.82-3.44 3.76-6.897 5.27-10.481 1.71-4.032 2.48-11.164 7.06-12.649 4.81-1.562 10.92-1.635 15.95-1.804l-.09-22.283c-6.03-.078-11.65-.152-17.53-1.671-2.44-3.758-3.52-8.256-5.26-12.36-1.58-3.704-4.04-7.373-4.81-11.333 1.71-2.714 9.03-12.603 8.82-15.113l-14.45-13.653c-5.01 3.238-11.13 7.69-17.05 8.778l-20.54-8.705-3.78-17.28-13.45.313Z"/><path fill="#DE9A93" d="m1327.12 539.757 13.45-.313 3.78 17.28 20.54 8.705c5.92-1.088 12.04-5.54 17.05-8.778l14.45 13.653c.21 2.51-7.11 12.399-8.82 15.113.77 3.96 3.23 7.629 4.81 11.333 1.74 4.104 2.82 8.602 5.26 12.36 5.88 1.519 11.5 1.593 17.53 1.671l.09 22.283c-5.03.169-11.14.242-15.95 1.804-4.58 1.485-5.35 8.617-7.06 12.649-1.51 3.584-3.45 7.041-5.27 10.481 1.68 5.152 6.77 11.331 9.74 16.028l-15.17 15.126c-4.86-2.618-9.35-6.198-13.85-9.393l-23.43 9.552-3.42 18.928-13.54-.025c-2.25.046-4.35-.104-6.58-.416-3.49-3.997-1.99-10.861-3.87-15.617-1.9-4.821-9.85-6.316-14.25-8.056-2.97-1.171-5.86-2.66-8.73-4.049-5.47 1.777-10.62 5.521-15.34 8.767l-14.61-14.596 11.24-14.179c-1.81-3.247-3.79-6.61-5.25-10.034-1.54-3.599-2.48-10.765-5.21-13.408-4.16-4.013-14.25-3.48-19.72-3.617l-.03-21.475 20.6-2.362c1.53-5.887 3.53-11.634 5.8-17.277.63-1.582 3.26-6.173 3.28-7.551.02-.95-3.26-5.092-4.1-6.073-1.9-2.204-6.28-5.677-7.17-8.269l13.77-14.529 17.81 10.408c6.62-2.13 13.22-5.97 19.51-8.99l4.52-16.854 8.14-.28Zm-2.02 43.51c-11.73 3.053-21.19 8.39-27.44 19.153-5.36 9.23-7.52 20.008-4.75 30.45 2.54 9.598 8.79 18.815 17.54 23.761 7.91 4.476 16.33 6.872 25.45 5.581 11.44-2.165 21.13-6.593 27.86-16.498 5.89-8.671 8.27-20.548 6.12-30.803-2.19-10.386-8.51-19.577-17.43-25.327-8.72-5.617-17.09-7.079-27.35-6.317Z"/><path fill="#242424" d="M1325.1 583.267c10.26-.762 18.63.7 27.35 6.317 8.92 5.75 15.24 14.941 17.43 25.327 2.15 10.255-.23 22.132-6.12 30.803-6.73 9.905-16.42 14.333-27.86 16.498-9.12 1.291-17.54-1.105-25.45-5.581-8.75-4.946-15-14.163-17.54-23.761-2.77-10.442-.61-21.22 4.75-30.45 6.25-10.763 15.71-16.1 27.44-19.153Zm4.12 12.003c-7.88.908-15.06 5.073-19.93 11.343-3.76 4.845-6.5 12.147-5.59 18.325 1.26 8.649 5.57 16.128 12.72 21.252 4.06 2.907 9.78 4.397 14.74 4.261 9.11-.886 15.88-3.589 21.76-10.791 4.78-5.855 6.25-12.925 5.44-20.342-.81-7.445-5.44-14.079-11.22-18.621-5.28-4.154-11.37-5.315-17.92-5.427ZM240.304 194.513l41.677-.025 83.021-.036 63.132-.026c10.624-.006 21.504-.547 32.102.008 3.588.188 6.975.883 10.28 2.317 6.539 2.837 11.37 8.079 13.961 14.696 1.407 3.593 1.982 7.565 2.177 11.405l.086 27.83.036 55.519.096 46.604.052 20.826c-.008 4.461.333 9.58-1.519 13.721-1.446 3.233-3.091 6.014-5.58 8.575-3.932 4.044-9.541 7.074-15.087 8.128-3.894.741-8.235.387-12.196.396l-22.288.02-78.703.086.137 33.649c.135 8.544 2.607 16.543 8.987 22.503 11.25 10.509 28.917 7.946 43.013 7.672l59.115-.182 21.59-.022c4.609-.002 9.041-.547 13.232 1.698 1.487 1.876 1.785 2.277 1.9 4.773.054 1.187-.173 2.697-1.064 3.564-4.19 4.079-16.29 2.486-21.98 2.496l-67.153-.028c-11.968-.027-26.394 1.423-38.078-1.244-7.653-1.747-14.677-5.488-20.193-11.103-11.148-11.347-11.257-24.502-11.328-39.333l-.046-24.041c-2.24-1.381-12.212-.481-15.243-.487l-56.282.019c-9.674.056-20.506 1.404-30.017-.321-4.279-.775-8.846-2.429-12.391-4.976-5.586-4.014-9.844-10.639-10.854-17.466-1.534-10.377-.562-21.361-.494-31.841l.088-51.546-.032-50.611c-.071-10.243-.853-21.17.306-31.345.494-4.335 2.584-8.262 5.171-11.704 5.052-6.722 12.408-8.977 20.369-10.168Z"/><path fill="#544A52" d="m419.598 206.711 1.275-.071c10.419-.504 21.097-.365 31.512.11 3.611.164 8.283-.09 11.675 1.13 1.904.685 3.969 2.273 5.425 3.678 4.527 4.367 5.256 10.32 5.305 16.307l-.098 98.958.036 32.433c.005 6.119.383 12.502-.351 18.568-.466 3.856-1.373 7.903-4.321 10.664-2.07 1.938-4.876 3.322-7.688 3.669-5.801.717-12.446.135-18.341.143l-37.502.027-126.4-.04-22.28.072c-8.723.025-20.305 1.877-27.14-4.712-4.422-4.263-3.621-9.199-3.794-14.935l.083-98.661-.288-30.615c-.183-7.045-.821-14.648-.087-21.64.376-3.576 1.519-7.135 4.064-9.747 2.165-2.224 5.063-4.35 8.192-4.787 6.474-.904 13.537-.38 20.086-.335l32.658.089 127.979-.305Z"/><path fill="#FEFEFE" d="m382.934 327.778 12.048-.264c3.234.002 4.191.342 6.419 2.567.656 2.448-.312 4.499-1.076 6.818l-2.421.208c-5.082.275-11.348 1.417-15.248-2.15-.871-3.13-.531-4.14.278-7.179ZM307.09 327.911l13.98-.137c2.797.031 3.557 1.166 5.392 3.039.111 2.471-.643 4.117-1.63 6.302-4.509.611-10.886 1.015-15.358.304-2.249-.358-2.59-1.068-3.849-2.783-.22-3.066.224-4.019 1.465-6.725ZM333.309 249.246c5.321-.316 16.447-2.058 20.759 1.256.611.782 1.217 1.677 1.342 2.685.875 7.073.095 15.385.099 22.575l-.085 51.212c4.033-.022 7.734.172 11.701.915 2.132 2.304 2.307 2.461 2.607 5.567-.975 2.041-1.141 2.29-3.073 3.448-5.92.763-13.28 1.48-19.034-.326-.434-.481-1.577-1.456-1.799-1.996-1.979-4.821-.252-14.633-.221-19.908l.12-55.162c-3.351.134-7.585.591-10.85-.208-2.39-.585-3.114-1.488-4.192-3.492.107-3.5.551-3.941 2.626-6.566Z"/><path fill="#242424" d="m317.014 581.714.481-.056c16.441-1.585 37.445 7.61 49.681 17.945 14.537 12.279 24.16 28.81 27.815 47.465 1.045 5.333 1.216 10.99 1.649 16.406 2.01 1.19 8.634.408 11.197.433 4.757.047 9.487.422 14.174 1.262 8.379 1.501 16.919 4.733 24.245 9.064 17.411 10.292 30.884 28.381 35.752 47.98 8.819 35.504-6.29 72.791-38.798 90.33-3.337 1.8-6.781 3.194-10.41 4.285-.598.18-5.371 1.339-5.518 1.548-.701.99.66 38.458-.792 44.377-1.019 4.155-3.283 7.63-5.463 11.254l79.509.035c12.474-.001 25.822-.98 38.212.119 1.979.175 4.396.54 6.127 1.572 1.727 1.028 2.296 2.772 2.77 4.607-.397 1.607-.455 2.62-1.627 3.851-1.201 1.261-2.437 2.045-4.193 2.27-5.42.694-11.73.134-17.234.128l-34.556-.082-122.16-.035-156.806.076-41.881.151c-7.801.035-17.328 1.075-24.813-.965-2.09-1.91-2.437-2.324-3.256-5.019.455-1.843.497-3 1.93-4.327 1.628-1.508 4.209-2.14 6.366-2.351 7.421-.727 15.425-.047 22.91-.011l51.648.59c-2.826-3.661-5.458-7.267-6.874-11.725-1.954-6.151-1.637-12.579-1.675-18.947l-.059-25.873c-10.876-3.748-20.809-8.961-29.672-16.364-16.985-14.188-27.644-35.872-29.534-57.809-2.001-23.23 5.619-48.166 20.604-66.053 16.995-20.287 39.364-28.316 64.926-30.643 1.433-2.482 1.488-7.02 2.167-9.921 2.148-9.182 7.185-18.764 13.131-26.078 15.832-19.475 35.678-27.092 60.027-29.489Z"/><path fill="#ACBE52" d="M313.278 594.374c2.714-.271 5.451-.099 8.167.06 30.12 1.757 54.914 24.781 61.006 53.901.8 3.822 1.389 7.914 1.408 11.826.026 5.788-2.083 12.1 2.09 16.81 5.238 2.787 15.148-.767 21.098-.966 17.008-.571 34.061 7.63 46.081 19.29 12.971 12.583 19.277 30.829 19.385 48.676l-.134 4.696c-.169 2.207-.529 4.396-.942 6.57-3.824 20.092-18.03 39.266-36.904 47.741-4.916 2.207-10.666 2.507-15.508 4.76-1.121.523-2.571 1.643-3.077 2.835-1.153 2.716-.68 6.798-.689 9.774l.04 20.996c.042 9.747 1.363 19.342-6.17 26.823-2.774 2.755-6.02 4.353-9.84 5.138-7.32 1.504-16.317.562-23.814.558l-44.873-.053-57.31-.344c-9.417-.011-19.36 1.151-28.666-.359-2.751-.447-6.136-2.241-8.3-3.979-14.722-11.819-5.869-39.09-7.977-55.574-.285-2.229-.968-3.731-2.776-5.122-3.536-2.721-9.368-3.763-13.553-5.418-6.096-2.411-11.388-5.639-16.478-9.723-15.345-12.313-24.707-29.664-26.802-49.212-2.134-19.903 3.26-40.819 16.001-56.438 11.078-13.581 28.481-23.999 45.911-26.734 5.196-.815 10.471-.062 15.626-.732 2.763-.359 5.194-2.027 6.4-4.547 1.213-2.532 1.333-6.465 1.852-9.257 1.686-9.07 4.794-17.748 10.348-25.202 12.023-16.137 28.902-23.898 48.4-26.794Z"/><path fill="#242424" d="M328.691 614.2c7.412-.013 13.131 2.929 18.735 7.684 9.146 7.76 16.177 18.335 17.013 30.563.178 2.603-2.398 4.724-4.044 6.537-1.661.466-2.905.223-4.455-.478-1.902-.861-3.068-2.083-3.758-4.054-1.375-3.926-1.89-8.064-3.813-11.809-2.4-4.674-6.271-9.169-10.693-12.04-2.627-1.706-9.416-3.859-10.814-6.382-.523-.942-.855-2.408-1.224-3.444.227-2.669 1.602-4.437 3.053-6.577ZM237.219 694.05c2.293-.498 3.872-.295 6.14.245 2.291 1.701 2.998 3.06 4.035 5.626-.185 1.205-.361 2.299-1.065 3.327-2.243 3.273-5.473 2.791-8.954 3.433-13.065 2.41-24.592 13.11-27.172 26.29-.709 3.622.212 9.149-.968 12.336-.401 1.081-1.783 2.675-2.451 3.677-2.762.769-4.297.305-6.909-.586-1.504-1.214-2.415-2.348-2.933-4.24-2.443-8.929 2.483-21.951 7.243-29.465 7.748-12.232 19.457-17.477 33.034-20.643ZM1043.84 483.858c.77.955 1.37 1.465 1.55 2.732 1.13 7.956.1 17.597.1 25.699l.02 60.44-.03 30.85c-.01 3.173.64 8.264-.05 11.196-.17.734-.95 2.076-1.44 2.626-1.76 1.957-3.21 1.9-5.61 1.999-1.91-.779-3.66-1.83-4.5-3.843-.91-2.166-.51-6.097-.51-8.481v-20.737l.05-103.466-.01-29.582c-.01-6.008.34-12.267-.57-18.223-.68-4.472-2.71-8.83-5.85-12.119-3.66-3.833-9.28-5.792-14.49-5.9l-100.407-.224-190.87-.108-106.205.031c-16.285.005-33.555-1.348-49.708.048-6.379.551-13.107 2.483-17.76 7.116-5.49 5.465-7.457 12.262-7.518 19.821l-.069 188.427-.096 53.688c-.062 10.069-1.023 21.318.47 31.265.816 5.435 3.682 10.72 7.542 14.588 4.082 4.089 9.809 6.919 15.549 7.673 12.385 1.627 25.834.402 38.362.395l78.507.007 264.678-.009.015-64.172c-.03-9.888-.986-20.518-.057-30.322.129-1.357.591-2.232 1.512-3.209 1.259-1.337 3.173-1.761 4.939-1.892 5.892-.435 12.179.173 18.111.215l37.265.159 121.49-.397c5.45-.05 21.56-1.575 25.22 2.083 1.51 1.515 2.29 3.469 2.64 5.558 1.13 6.679.28 14.68.29 21.494l.05 45.772 62.74-.058c9.49-.01 22.3-1.606 31.43.847 1.04.28 1.83.673 2.58 1.455 1.53 1.601 2.12 2.677 2.33 4.858.47 5.03.11 10.356.15 15.424l.21 31.624.31 105.392 102.86.136c6.34.005 30.61-1.616 35.23 1.37 1.46 2.027 1.94 3.232 1.99 5.736-.71 1.404-1.09 2.842-2.48 3.669-2.22 1.328-5.37 1.521-7.92 1.491l-232.99-.455-323.37-.423-115.165-.018-27.475.007c-4.091.004-9.525.739-13.405-.438-2.707-.821-3.273-2.233-4.353-4.583.252-2.149.727-3.187 2.128-4.832 3.432-2.201 8.022-1.573 11.958-1.485-2.055-4.548-3.546-8.731-3.651-13.782-.192-9.293 7.293-19.029 16.536-20.604 3.254-.554 8.414.171 11.287-.837 1.285-.451 4.709-4.355 5.865-5.569 21.569-22.654 26.632-51.82 25.966-81.855l-5.333.217-115.478-.125-32.199.022c-9.643.111-19.543.685-29.058-1.18-6.831-1.34-12.732-4.915-17.669-9.743-5.758-5.632-9.446-12.303-10.688-20.296-1.374-8.838-.525-18.802-.515-27.757l-.005-49.617-.17-179.989c-.112-18.055-2.081-35.501 11.904-49.385 5.535-5.495 13.078-8.549 20.706-9.662 7.274-1.06 15.511-.089 22.907-.043l48.388.029 171.887.149 56.613.253 100.093-.001 37.037.007c6.609.002 13.889-.599 20.389.499 6.97 1.175 14.04 5.03 18.83 10.211 10.01 10.821 8.07 26.986 8.11 40.536l-.04 24.349c-.06 1.241-.45 2.213-1.08 3.258ZM838.5 752.456c-.169 28.573 1.859 58.474 23.117 80.087 2.737 2.783 5.807 5.566 9.276 7.398 8.064-.766 14.676-.774 21.259 4.591 4.22 3.44 7.086 8.512 7.593 13.954.491 5.257-1.213 9.496-3.296 14.152l-.217.473 45.955.165 2.124-.438c2.169-4.514.64-106.59.623-120.383l-106.434.001Z"/><path fill="#7B7B7B" d="M750.356 778.008c.715-2.061.269-5.253.241-7.461l-.266-18.234 75.328.156c.911 2.31.244 6.139.192 8.722-.111 5.446-.082 10.754.581 16.172-7.644-.585-73.685-1.003-76.076.645Z"/><path fill="#FEFEFE" d="M868.078 851.107c4.678-.285 11.099-.947 14.877 2.345 2.209 1.925 3.987 4.769 4.159 7.758.18 3.121-1.412 6.439-3.603 8.598-1.95 1.922-4.483 3.09-7.182 3.397-6.592.751-13.528.223-20.153.126l-28.996-.076-116.932.262c-3.96-.149-9.807-.236-13.123-2.665-2.171-1.59-4.722-6.145-4.854-8.873-.118-2.45.916-4.865 2.533-6.66.88-.977 4.416-3.633 5.649-3.853 3.61-.644 8.371-.042 12.146-.058l30.985-.085 124.494-.216Z"/><path fill="#ACBE52" d="m957.007 653.31 85.033-.005.42.674.34 44.842c-.1 4.42.64 11.313-1.98 15.045l-.2 1.711-83.473-.387-.14-61.88Z"/><path fill="#BCD7C2" d="M1053.11 653.764c8.79-1.706 19.88-.475 28.9-.458l62.08.157.35 37.49c-.01 7.141 1.14 18.197-1.98 24.687l-87.62-.068.19-32.938c.08-7.113 2.22-22.333-1.53-28.289l-.39-.581Z"/><path fill="#544A52" d="m957.19 806.767 85.33-.004c.05 13.014 3.27 56.985-1.28 66.378l-84.156.082.106-66.456Z"/><path fill="#ACBE52" d="m957.146 727.704 85.384.017c.17 11.532 2.45 58.676-1.74 65.645l-.54 1.109-83.202-.007.098-66.764Z"/><path fill="#EDD384" d="M1154.56 807.568c8.04-1.845 19.07-.532 27.43-.516l61.51.171.09 42.756.07 15.065c-.04 1.274.2 3.714-.22 4.793-.26.685-1.16 1.627-1.61 2.255l-.58 1.148-84.91-.162.37-46.412c-.07-5.432.83-13.75-1.82-18.553l-.33-.545Z"/><path fill="#8E8E8E" d="M750.356 778.008c2.391-1.648 68.432-1.23 76.076-.645 1.124 22.56 9.919 44.443 24.697 61.57l-125.333.391c1.358-3.824 6.21-8.329 8.47-12.086 8.774-14.583 14.418-32.286 16.09-49.23Z"/><path fill="#EDD384" d="M1154.68 728.05c9.01-1.376 19.59-.364 28.76-.364l60.07.032.06 41.97c.05 6.457 1.01 13.708.06 20.081-.17 1.158-.72 2.035-1.5 2.874-.04.603-.32 1.256-.51 1.836l-85.33-.002c.03-9.547 2-61.193-1.25-65.953l-.36-.474ZM1089.9 806.822l53.89-.137.02 66.412-37-.018-52.22.001.17-66.026 35.14-.232Z"/><path fill="#BCD7C2" d="m1053.83 728.048 90.04-.118.05 41.25c.05 6.007.79 12.222.33 18.193-.17 2.091-.44 3.756-1.84 5.428-.06.555-.35 1.154-.53 1.681h-86.94l.11-42.482c.02-7.046 1.52-16.617-.92-23.184l-.3-.768Z"/><path fill="#ACBE52" d="m989.302 233.231-.051-59.907c-.008-8.99-.953-19.075.183-27.947.181-1.411.814-3.402 1.829-4.409 4.978-4.937 19.367-3.384 26.047-3.21l175.77.366 41.81-.016c9.28-.093 18.65-.797 27.9.301 2.54.301 4.22 1.29 6.07 3.001 1.93 4.265 3.19 127.668.61 135.268-.19.556-.53 1.118-.84 1.615 17.12.025 34.59-.732 51.52 2.319 19.07 3.436 37.43 13.06 51.08 26.757 17.58 17.626 26.85 42.027 26.71 66.846-.15 27.858-12.6 56.175-32.44 75.651-19.06 18.717-44.66 31.213-71.41 33.539-13.31 1.156-27.27.272-40.64.17l-56.59-.269-3.81-.085c2.24-4.144 1.28-8.052 1.06-12.573-.03-.504-.33-2.648-.15-2.979.99-1.925 6.14-3.909 8-5.307 7.04-5.299 9.96-16.324 7.64-24.583-1.47-5.191-5.99-11.093-10.71-13.735-5.96-3.345-12.25-3.519-18.69-1.483-5.3 1.677-10.22 5.883-12.76 10.813-2.76 5.353-3.25 12.213-1.24 17.878 2.15 6.068 6.34 10.079 11.83 13.201.9.512 3.59 1.69 4.1 2.54 1.53 2.531.39 12.566-.51 15.266l-1.54 1.601c-3.44-.712-7.84-.248-11.38-.267l-25.41.027-99.45.238c.63-1.045 1.02-2.017 1.08-3.258l.04-24.349c-.04-13.55 1.9-29.715-8.11-40.536-4.79-5.181-11.86-9.036-18.83-10.211-6.5-1.098-13.78-.497-20.389-.499l-37.037-.007-100.093.001-56.613-.253c2.043-10.75 6.671-20.818 14.094-28.92 13.329-14.55 29.04-16.362 47.69-17.182-7.504-22.11-8.813-43.804-1.655-66.293 7.77-24.415 26.523-44.239 49.018-55.857 23.505-12.139 51.626-11.111 76.267-3.263Z"/><path fill="#242424" d="m989.302 233.231-.051-59.907c-.008-8.99-.953-19.075.183-27.947.181-1.411.814-3.402 1.829-4.409 4.978-4.937 19.367-3.384 26.047-3.21l175.77.366 41.81-.016c9.28-.093 18.65-.797 27.9.301 2.54.301 4.22 1.29 6.07 3.001 1.93 4.265 3.19 127.668.61 135.268-.19.556-.53 1.118-.84 1.615 3.39 5.566 1.93 18.292 1.94 24.782l-.78 57.106c8.41-.085 41.02-1.949 46.31 1.782 1.36 1.982 1.46 3.678 1.61 6.002-.62 1.252-1.22 2.676-2.35 3.543-2.19 1.674-6.47 1.548-9.24 1.578l-68.65-.315-179.85.007-78.68.504c-15.675.033-31.774.727-47.334-1.399-1.786-2.048-2.547-2.888-2.415-5.794.105-2.295 1.95-3.61 3.434-5.121 5.551-1.523 12.089-.248 17.839-.215l39.177.037-.339-127.559Z"/><path fill="#ACBE52" d="m1002.23 150.572 255.39.196.04 155.259.14 38.26c0 3.187.74 10.31-.31 13.175-.34.902-1.3 2.033-1.84 2.872-4.48 1.659-12.15.477-17.08.473l-41.26-.008h-195.45l.05-151.708-.03-37.674c-.06-7.035-1.04-13.876.35-20.845Z"/><path fill="#FEFEFE" d="M1204.16 194.67c2.48-.176 5.08-.372 7.41.69 2.16.982 3.46 2.752 4.23 4.916.69 1.908.48 3.69-.45 5.52-1.31 2.574-4.4 4.874-6.49 6.832l-14.61 13.67-63.06 59.119-23.1 22.999c-2 1.823-3.82 3.199-6.4 4.097-1.7-.108-4.06-.092-5.6-.828-3.05-1.462-5.94-4.878-8.3-7.304-8.07-8.276-16-19.718-25.61-26.093l-.54-.34c-.83-4.379-7.57-8.387-9.55-12.758-.02-2.1.04-3.788 1.36-5.521 1.55-2.028 4.14-3.253 6.67-3.353 2.35-.091 3.77.31 5.64 1.686 3.52 2.608 6.55 6.949 9.57 10.177 7.97 8.534 15.8 17.179 24.87 24.571l70.86-66.603 21.4-20.076c3.91-3.675 8.26-7.28 11.7-11.401Z"/></svg>
