<?xml version="1.0" encoding="utf-8" ?>
<svg xmlns="http://www.w3.org/2000/svg" xmlns:xlink="http://www.w3.org/1999/xlink" width="1536" height="1024">
	<path fill="#4F464D" d="M1320.97 450.231C1322.52 449.383 1322.81 449.451 1323.46 447.736C1325.51 452.825 1324.48 461.134 1324.48 466.673L1324.44 489.827C1324.42 494.258 1324.98 499.674 1323.18 503.799C1322.9 504.446 1322.93 504.367 1322.62 504.867L1321.63 505.674C1322.29 494.132 1320.99 482.741 1320.91 471.262C1320.86 464.238 1322.77 457.317 1320.97 450.231Z"/>
	<path fill="#4F464D" d="M933.327 834.761L958.689 854.607C961.801 857.079 967.329 860.507 969.098 863.959C968.225 863.738 967.401 863.726 966.749 863.088C965.97 862.326 965.388 861.594 964.28 861.365L964.242 861.96C966.566 864.152 968.478 865.091 968.929 868.312L967.984 867.52C959.909 859.891 950.632 853.439 941.986 846.461C938.94 844.003 934.215 841.074 932.503 837.62C933.408 836.694 933.212 836.004 933.327 834.761Z"/>
	<path fill="#4F464D" d="M647.934 673.82C658.479 675.135 669.697 674.318 680.335 674.324L744.053 674.468L743.636 676.711L648.141 676.227L647.934 673.82Z"/>
	<path fill="#4F464D" d="M188.31 861.099L191.378 861.585L191.58 863.228L191.442 933.178L188.307 933.122L188.31 861.099Z"/>
	<path fill="#4F464D" d="M833.152 895.619C836.68 891.026 842.895 886.974 847.362 883.072L885.549 850.001L885.238 850.626C883.973 853.069 882.555 854.539 880.5 856.334C883.525 856.334 883.267 852.856 886.669 853.793C875.345 864.845 862.657 874.865 850.65 885.203C845.928 889.268 839.541 896.371 833.99 898.759L833.625 897.969L835.125 896.101L833.152 895.619Z"/>
	<path fill="#BDBF4D" d="M177.701 489.984L183.474 490.718C185.774 491.229 187.608 493.033 188.755 495.033C190.329 497.776 190.728 500.682 189.761 503.695C188.466 507.732 184.82 509.369 181.353 511.185C180.072 511.174 178.634 511.187 177.375 510.893C174.252 510.165 171.442 508.002 169.94 505.153C168.669 502.745 168.349 499.273 169.355 496.727C170.886 492.851 174.163 491.536 177.701 489.984Z"/>
	<path fill="#242424" d="M744.053 674.468C744.454 672.842 744.853 671.1 745.769 669.677C747.868 666.415 751.53 664.72 755.25 664.111C758.356 663.602 761.062 664.212 763.598 666.101C766.075 667.945 768.202 670.677 768.657 673.801C769.226 677.715 768.695 681.522 766.193 684.659C764.1 687.283 761.384 688.808 758.022 689.213C755.045 689.571 751.139 688.528 748.772 686.684C746.101 684.604 745.023 682.096 744.192 678.916L743.636 676.711L744.053 674.468Z"/>
	<path fill="#2F515C" d="M1008.07 663.931C1009.82 663.866 1011.73 663.739 1013.46 664.092C1017.39 664.893 1020.8 667.254 1022.91 670.664C1024.64 673.469 1025.04 677.033 1024.16 680.222C1022.91 684.823 1019.22 687.058 1015.39 689.281C1013.19 689.401 1010.68 689.648 1008.52 689.236C1005.46 688.656 1002.28 685.549 1000.74 682.906C998.854 679.669 998.886 675.974 999.811 672.442C1001.02 667.845 1004.23 666.103 1008.07 663.931Z"/>
	<path fill="#BDBF4D" d="M454.556 261.18C456.745 261.103 459.87 260.733 461.935 261.468C465.307 262.668 468.121 265.791 469.648 268.955C471.038 271.835 470.745 275.938 469.582 278.893C468.05 282.789 464.448 285.107 460.756 286.604C458.614 286.653 456.443 286.702 454.347 286.188C451.119 285.396 448.606 283.571 446.996 280.663C445.057 277.161 444.245 273.39 445.503 269.492C446.881 265.225 450.787 263.061 454.556 261.18Z"/>
	<path fill="#242424" d="M1322.62 504.867C1326.09 509.21 1323.35 526.45 1325.22 527.403C1329.03 529.355 1332.43 531.856 1333.83 536.103C1334.83 539.135 1334.57 543.201 1333 545.987C1331.31 548.983 1328.4 551.482 1325.04 552.349C1322.17 553.093 1317.97 552.652 1315.44 551.088C1312.88 549.506 1310.37 546.247 1309.77 543.301C1309.03 539.633 1309.64 535.842 1311.73 532.725C1313.37 530.265 1315.93 528.861 1318.53 527.621C1318.99 527.405 1321.3 526.555 1321.51 526.289C1322.03 525.619 1322.09 508.204 1321.79 506.499L1321.63 505.674L1322.62 504.867Z"/>
	<path fill="#4F464D" d="M892.622 127.476L711.719 127.661L651.186 127.718L623.417 128.149C621.1 128.076 618.075 128.158 616.125 126.762L616.636 125.656C620.132 124.309 624.16 124.564 627.856 124.482L649.465 124.498L700.023 124.703L830.184 124.942L871.005 125.025C877.161 125.045 886.398 123.931 892.034 126.05L891.866 126.83L892.622 127.476Z"/>
	<path fill="#242424" d="M808.939 892.102C813.058 890.15 819.159 888.639 823.647 890.047C827.54 891.268 828.932 895.113 833.152 895.619L835.125 896.101L833.625 897.969L833.99 898.759C835.048 905.178 836.112 910.697 832.127 916.332C830.206 919.048 826.643 921.679 823.549 922.853C820.531 923.286 817.332 923.894 814.34 923.037C809.892 921.763 806.043 918.616 803.853 914.552C801.833 910.804 800.758 906.222 802.139 902.057L802.394 901.345C803.647 897.713 806.444 894.945 808.939 892.102Z"/>
	<path fill="#242424" d="M885.549 850.001C889.938 844.829 896.33 840.361 901.527 835.947C900.785 834.021 899.97 831.96 899.619 829.917C898.814 825.226 899.76 820.132 902.549 816.228C905.168 812.56 909.044 810.255 913.5 809.648C918.825 808.923 923.872 810.122 928.122 813.443C935.966 819.574 932.033 826.357 933.254 834.344L933.327 834.761C933.212 836.004 933.408 836.694 932.503 837.62C929.304 837.29 928.837 838.308 926.174 840.049C917.795 845.53 912.13 843.494 904.233 839.163L886.669 853.793C883.267 852.856 883.525 856.334 880.5 856.334C882.555 854.539 883.973 853.069 885.238 850.626L885.549 850.001Z"/>
	<path fill="#4F464D" d="M1069.3 576.768L1070.75 576.796C1072.21 579.929 1073.19 582.431 1071.86 585.899C1070.12 590.404 1066.42 593.098 1062.46 595.536C1050.3 596.741 1037.82 596.293 1025.59 596.339L967.269 596.499L783.37 596.218L715.43 595.745L689.726 595.722C686.093 595.691 681.654 596.146 678.171 595.083L679.067 593.297L760.473 593.381L914.053 593.359L1011.97 593.368L1041.25 593.345C1046.42 593.333 1052.04 593.718 1057.16 593.11C1060.86 592.67 1064.14 591.49 1066.5 588.451C1069.41 584.685 1069.86 581.367 1069.3 576.768Z"/>
	<path fill="#618743" d="M698.608 758.647L783.368 759.251L783.174 797.727L728.22 797.489C728.14 784.87 727.367 771.747 728.782 759.217L699.389 758.737L698.608 758.647Z"/>
	<path fill="#242424" d="M892.034 126.05C893.252 125.297 894.345 124.973 894.901 123.619C896.521 119.675 898.814 115.826 903 114.193C905.895 113.064 909.673 113.095 912.552 114.325C917.044 116.243 919.132 120.5 920.847 124.772L1019.8 125.175L1045.32 125.039C1049.67 124.963 1054.43 124.348 1058.73 125.003C1062.59 125.591 1065.99 127.418 1068.7 130.221C1071.02 132.624 1072.57 135.684 1072.38 139.091L1072.34 139.606C1072.25 143.62 1073.24 147.973 1073.24 152.154L1073.02 215.373L1072.65 450.152L1081.12 450.081L1081.88 451.515C1079.77 453.348 1075.42 453.214 1072.65 453.276L1072.55 535.423C1072.55 547.665 1073.63 560.875 1072.6 573.007C1072.42 575.057 1072.11 575.379 1070.75 576.796L1069.3 576.768C1070.11 572.151 1069.62 566.805 1069.63 562.087L1069.68 534.109L1069.68 422.757C1069.7 418.804 1070.01 414.648 1069.65 410.725C1069.48 408.814 1068.54 407.566 1069.22 405.629C1069.47 404.912 1069.56 404.791 1069.68 403.974C1070.2 400.368 1069.78 396.066 1069.79 392.403L1069.78 367.67L1069.7 278.61L1069.7 183.324L1069.86 158.662C1070 152.118 1070.47 145.292 1069.51 138.79C1069.33 137.504 1069.04 136.646 1068.21 135.633C1066.1 133.027 1064.13 130.06 1060.88 128.786C1059.84 128.383 922.5 127.301 920.768 128.038C920.694 128.069 918.938 131.87 918.718 132.275C917.507 134.502 915.778 136.311 913.412 137.308C907.871 139.642 900.881 138.937 897.375 133.511C895.591 130.751 895.806 128.714 892.622 127.476L891.866 126.83L892.034 126.05Z"/>
	<path fill="#242424" d="M969.098 863.959L971.625 864.575L972.274 863.949C975.661 860.724 980.885 857.67 985.729 857.792C990.441 857.91 994.713 860.707 998.37 863.425L1098.15 756.412C1094.78 750.09 1092.41 744.932 1094.63 737.778C1096.11 733.026 1099.74 729.153 1104.13 726.838C1107.8 724.897 1113.13 724.688 1117.08 725.993C1121.12 727.328 1125.25 730.944 1127.06 734.836C1129.04 739.114 1129.4 744.845 1127.71 749.264C1125.87 754.085 1122.07 757.79 1117.35 759.815C1115.5 760.608 1111.45 762.023 1109.49 761.643C1108.07 761.368 1101.94 758.49 1101.12 758.917C1100.38 759.297 1098.79 761.577 1098.18 762.272L1088.56 772.849L1000.75 866.861C1003.3 873.266 1004.58 875.139 1001.7 881.938C999.801 886.421 996.02 889.636 991.5 891.293C987.057 892.922 982.299 892.292 978.107 890.237C973.712 888.082 970.162 884.213 968.755 879.464C967.596 875.556 969.25 872.116 968.929 868.312C968.478 865.091 966.566 864.152 964.242 861.96L964.28 861.365C965.388 861.594 965.97 862.326 966.749 863.088C967.401 863.726 968.225 863.738 969.098 863.959Z"/>
	<path fill="#BDBF4D" d="M659.875 797.21L660.033 758.524L698.608 758.647L699.389 758.737L728.782 759.217C727.367 771.747 728.14 784.87 728.22 797.489L659.875 797.21Z"/>
	<path fill="#BDBF4D" d="M611.887 841.943C605.7 840.878 599.483 841.352 593.245 841.611L593.173 802.008L659.437 801.999L659.594 841.768L611.887 841.943Z"/>
	<path fill="#618743" d="M754.978 801.976L783.111 801.951L824.394 802.012L824.229 842.338C818.49 842.003 812.962 841.809 807.257 842.801L754.69 842.406L754.978 801.976Z"/>
	<path fill="#8CBB59" d="M659.875 797.21L728.22 797.489L783.174 797.727L783.111 801.951L754.978 801.976L754.69 842.406L612.037 842.375L611.887 841.943L659.594 841.768L659.437 801.999L659.895 801.834L659.875 797.21Z"/>
	<path fill="#4F464D" d="M659.875 797.21L728.22 797.489L783.174 797.727L783.111 801.951L754.978 801.976L659.895 801.834L659.875 797.21Z"/>
	<path fill="#BDBF4D" d="M190.353 709.789C210.68 726.763 223.025 753.098 231.701 777.565C234.903 786.596 238.243 796.342 239.091 805.914C240.343 820.051 236.058 833.44 226.805 844.235C219.116 853.205 209.011 857.962 197.529 860.067C196.536 860.249 192.781 860.293 192.152 860.697C192.11 860.724 191.64 862.963 191.58 863.228L191.378 861.585L188.31 861.099L188.28 860.713L183.375 860.332C170.99 858.661 159.887 852.947 152.18 842.91C142.31 830.055 140.692 815.553 142.909 800.03C146.842 772.493 168.003 726.733 190.353 709.789Z"/>
	<path fill="#242424" d="M189.074 821.979C182.324 816.105 175.94 809.784 169.767 803.308C167.168 800.582 164.099 797.802 163.374 794.069C163.916 793.767 164.381 793.209 165 793.164C168.961 792.875 182.566 814.05 190.138 815.642L205.29 800.848C207.807 798.358 209.861 795.423 213 793.678L214.456 794.069L215.029 795.569C210.212 802.622 202.894 808.769 196.762 814.781C194.414 817.082 191.827 820.318 189.074 821.979Z"/>
	<path fill="#618743" d="M190.353 709.789C210.68 726.763 223.025 753.098 231.701 777.565C234.903 786.596 238.243 796.342 239.091 805.914C240.343 820.051 236.058 833.44 226.805 844.235C219.116 853.205 209.011 857.962 197.529 860.067C196.536 860.249 192.781 860.293 192.152 860.697C192.11 860.724 191.64 862.963 191.58 863.228L191.378 861.585L188.31 861.099L188.28 860.713L190.125 859.669C189.778 853.464 191.482 825.378 189.074 821.979C191.827 820.318 194.414 817.082 196.762 814.781C202.894 808.769 210.212 802.622 215.029 795.569L214.456 794.069L213 793.678C209.861 795.423 207.807 798.358 205.29 800.848L190.138 815.642L190.353 709.789Z"/>
	<path fill="#8CBB59" d="M754.69 842.406L807.257 842.801L808.125 847.426L824.336 848.383L824.139 885.857C819.363 885.874 812.463 885.129 807.909 886.223L807.692 891.143L754.306 891.205L687.021 891.363C673.774 891.342 660.186 890.384 646.988 891.81L611.882 891.994L611.83 886.823L593.229 887.303L593.203 847.485C599.184 847.575 605.471 848.061 611.399 847.187L612.142 847.071L612.037 842.375L754.69 842.406Z"/>
	<path fill="#242424" d="M754.345 886.768L787.16 887.061C793.926 887.038 801.263 887.493 807.909 886.223L807.692 891.143L754.306 891.205L687.021 891.363C673.774 891.342 660.186 890.384 646.988 891.81L611.882 891.994L611.83 886.823L614.157 886.469L754.345 886.768Z"/>
	<path fill="#BDBF4D" d="M612.142 847.071L612.749 847.172L613.19 847.308C617.596 848.532 623.725 847.785 628.356 847.755L659.24 847.441L659.26 886.257L627.896 886.204C623.69 886.2 618.2 885.557 614.157 886.469L611.83 886.823L593.229 887.303L593.203 847.485C599.184 847.575 605.471 848.061 611.399 847.187L612.142 847.071Z"/>
	<path fill="#4F464D" d="M754.69 842.406L807.257 842.801L808.125 847.426L824.336 848.383L824.139 885.857C819.363 885.874 812.463 885.129 807.909 886.223C801.263 887.493 793.926 887.038 787.16 887.061L754.345 886.768L754.393 847.057L612.749 847.172L612.142 847.071L612.037 842.375L754.69 842.406Z"/>
	<path fill="#BDBF4D" d="M653.84 205.053C668.905 203.499 685.327 207.649 697.632 216.644C710.273 225.884 718.435 241.141 720.812 256.45C723.339 272.72 718.608 289.887 708.778 302.979C698.191 317.08 682.731 324.482 665.586 326.843C651.123 328.764 636.612 324.489 624.85 316.026C611.014 306.071 602.172 292.151 599.514 275.232C597.042 259.493 600.654 242.864 610.139 229.985C621.176 215 635.722 207.712 653.84 205.053Z"/>
	<path fill="#FEFEFE" d="M679.515 247.811L688.925 256.52L668.737 276.796C664.032 281.628 659.657 286.651 654.415 290.926L639.207 275.618L629.045 265.309L637.857 256.671L654.466 273.195L679.515 247.811Z"/>
	<path fill="#242424" d="M1273.87 745.727C1274.27 745.022 1274.72 744.239 1274.89 743.438C1275.67 739.801 1272.81 733.288 1271.81 729.715C1262.04 694.554 1244.28 664.554 1222.19 635.834L1198 652.727C1193.98 655.5 1189.84 659.034 1185.38 661.011C1183.85 659.962 1183.9 660.097 1183.55 658.286C1187.02 654.388 1191.58 651.688 1195.77 648.63L1219.22 631.818L1173.38 584.906C1185.49 591.604 1196.71 602.56 1206.51 612.265C1235.64 641.106 1258.45 675.581 1273.01 713.962C1275.44 720.376 1279.12 727.621 1279.16 734.537C1281.93 730.961 1281.03 725.093 1281.37 720.621C1281.73 716.012 1282.33 711.593 1283.53 707.122C1285.73 698.953 1289.37 692.037 1293.8 684.917L1293.04 681.849L1293.59 681.688C1298.31 680.065 1303.17 673.09 1306.96 669.657C1326.62 651.871 1352.58 642.493 1378.89 641.056C1376.34 658.199 1371.03 674.047 1363.34 689.543C1361.44 693.379 1359.26 698.597 1355.78 701.209C1355.18 701.652 1354.61 701.902 1353.93 702.184C1353.59 703.807 1353.43 703.902 1352.22 705.059C1351.89 711.361 1340.33 722.31 1335.51 726.642C1323.21 737.718 1305.21 747.319 1288.41 746.413C1289.84 751.731 1285.65 760.045 1284.88 765.681C1283.99 772.179 1284.24 778.937 1284.25 785.483L1389.44 785.571L1389.46 814.345L1178.35 813.925L1178.31 786.122L1280.16 785.664C1279.59 777.432 1278.97 750.509 1274.21 746.016L1273.87 745.727Z"/>
	<path fill="#8CBB59" d="M1288.41 746.413C1291.03 744.158 1292.19 740.717 1293.65 737.658C1295.69 733.39 1297.89 729.227 1300.35 725.188C1308.5 711.838 1318.24 699.639 1328.18 687.604L1352.22 705.059C1351.89 711.361 1340.33 722.31 1335.51 726.642C1323.21 737.718 1305.21 747.319 1288.41 746.413Z"/>
	<path fill="#BDBF4D" d="M1293.04 681.849L1293.59 681.688C1298.31 680.065 1303.17 673.09 1306.96 669.657C1326.62 651.871 1352.58 642.493 1378.89 641.056C1376.34 658.199 1371.03 674.047 1363.34 689.543C1361.44 693.379 1359.26 698.597 1355.78 701.209C1355.18 701.652 1354.61 701.902 1353.93 702.184C1353.75 699.784 1353.57 699.704 1351.75 698.13L1332.38 683.697L1353.93 661.845C1357.25 658.61 1362.35 655.199 1364.87 651.499C1354.83 656.492 1346.03 664.019 1337.83 671.584C1323 685.262 1309.53 700.549 1298.66 717.572C1293.06 726.345 1288.78 735.446 1283.85 744.557C1284.48 747.465 1284.63 747.81 1283.46 750.507L1282.65 750.183C1282.65 746.4 1282.69 737.954 1279.83 735.141L1279.16 734.537C1281.93 730.961 1281.03 725.093 1281.37 720.621C1281.73 716.012 1282.33 711.593 1283.53 707.122C1285.73 698.953 1289.37 692.037 1293.8 684.917L1293.04 681.849Z"/>
	<path fill="#4F464D" d="M1273.87 745.727C1271.36 742.337 1260.25 739.506 1255.81 737.265C1240.61 729.604 1225.87 720.668 1212.77 709.766C1167.62 672.192 1149.77 614.977 1144.51 558.433L1187.21 567.859C1225.24 578.157 1260 603.621 1279.56 637.954C1285.22 647.894 1289.98 659.797 1292.51 670.96C1293.28 674.379 1294.24 677.857 1293.22 681.31L1293.04 681.849L1293.8 684.917C1289.37 692.037 1285.73 698.953 1283.53 707.122C1282.33 711.593 1281.73 716.012 1281.37 720.621C1281.03 725.093 1281.93 730.961 1279.16 734.537C1279.12 727.621 1275.44 720.376 1273.01 713.962C1258.45 675.581 1235.64 641.106 1206.51 612.265C1196.71 602.56 1185.49 591.604 1173.38 584.906L1219.22 631.818L1195.77 648.63C1191.58 651.688 1187.02 654.388 1183.55 658.286C1183.9 660.097 1183.85 659.962 1185.38 661.011C1189.84 659.034 1193.98 655.5 1198 652.727L1222.19 635.834C1244.28 664.554 1262.04 694.554 1271.81 729.715C1272.81 733.288 1275.67 739.801 1274.89 743.438C1274.72 744.239 1274.27 745.022 1273.87 745.727Z"/>
	<path fill="#868A93" d="M416.575 820.155C417.451 816.221 419.738 811.959 421.159 808.089L428.849 787.697C430.299 783.819 431.521 779.421 433.664 775.876L514.105 775.989C511.974 782.128 512.954 790.469 512.95 796.946L512.985 835.406L512.946 933.31L416.416 933.527L416.575 820.155Z"/>
	<path fill="#242424" d="M1320.97 450.231C1319.98 449.576 1315.41 451.962 1313.95 452.541C1299.75 458.171 1285.08 459.708 1270.08 457.012C1250.56 453.504 1233.13 441.588 1221.91 425.357C1210.73 409.191 1206.59 388.288 1210.29 369.012C1214.39 347.586 1226.14 330.912 1244.01 318.741C1261.02 307.147 1280.35 304.689 1300.28 308.469C1320.03 312.217 1337.26 325.707 1348.32 342.162C1359.27 358.455 1362.25 378.783 1358.36 397.832C1354 419.263 1341.62 435.844 1323.46 447.736C1322.81 449.451 1322.52 449.383 1320.97 450.231Z"/>
	<defs>
		<linearGradient id="gradient_0" gradientUnits="userSpaceOnUse" x1="1343.1718" y1="387.96759" x2="1225.8374" y2="377.44427">
			<stop offset="0" stop-color="#7A9E50"/>
			<stop offset="1" stop-color="#C5D95A"/>
		</linearGradient>
	</defs>
	<path fill="url(#gradient_0)" d="M1274.3 322.953C1288.81 320.855 1305.65 324.537 1317.79 332.676C1330.62 341.281 1340.99 356.202 1343.91 371.397C1346.95 387.184 1343.17 403.508 1334.11 416.727C1324.25 431.136 1310.15 439.54 1293.14 442.612L1291.88 443.158C1290.07 443.663 1287.53 443.423 1285.63 443.417C1276.82 443.39 1267.77 441.699 1259.88 437.609C1245.06 429.927 1232.77 417.073 1227.83 400.864C1223.19 385.624 1223.82 369.027 1231.41 354.823C1241.03 336.815 1255.58 328.698 1274.3 322.953Z"/>
	<path fill="#FEFEFE" d="M1307.69 358.96C1308.86 358.873 1309.89 358.791 1311.05 359.039C1314.17 359.705 1319.89 367.238 1321.55 369.789C1317.3 376.527 1310.27 382.306 1304.61 387.933C1296.94 395.556 1289.4 403.731 1281.16 410.725C1280.29 410.821 1278.81 411.203 1278 411.075C1275.85 410.735 1273.83 408.351 1272.27 406.903C1268.97 403.828 1265.64 400.466 1261.55 398.456L1261 398.197C1259.31 392.991 1250.58 391.208 1249.65 385.594C1250.43 380.769 1256.18 376.251 1259.72 373.1C1266.26 376.921 1271.74 382.987 1277.57 387.842C1284.67 382.335 1291.07 375.702 1297.57 369.506C1301.01 366.224 1305.29 363.096 1307.69 358.96Z"/>
	<path fill="#868A93" d="M313.493 775.902L428.854 775.663C423.465 788.137 417.945 800.461 414.965 813.765L416.575 820.155L416.416 933.527C411.29 932.978 405.795 933.339 400.629 933.329L371.85 933.286L281.575 933.61L300.423 855.814C304.814 837.927 311.15 819.189 313.352 800.952C314.368 792.535 314.03 784.34 313.493 775.902ZM414.965 813.765L371.85 933.286L400.629 933.329C405.795 933.339 411.29 932.978 416.416 933.527L416.575 820.155L414.965 813.765Z"/>
	<path fill="#BDBF4D" d="M765.089 518.989L597.662 518.927L635.307 476.081L698.994 403.745L734.206 363.453C739.97 356.894 745.7 349.314 752.305 343.621L826.1 437.901L765.089 518.989Z"/>
	<path fill="#242424" d="M826.1 437.901L860.968 392.8C865.04 387.507 870.027 378.822 875.113 374.968L911.362 410.384L1001.55 260.586L1001.26 519.001L765.089 518.989L826.1 437.901Z"/>
	<path fill="#242424" d="M245.632 76.2976L266.489 76.2149C268.817 81.1846 270.334 86.6091 272.057 91.8152C277.655 93.9535 283.61 95.1275 289.431 96.505C292.954 92.6648 296.413 88.3157 300.461 85.0336L320.842 95.5554L317.001 112.465C320.768 116.367 324.907 121.592 329.285 124.726L346.729 120.988C348.03 121.664 348.77 123.782 349.471 125.102L357.036 139.53C353.799 144.217 349.769 148.283 345.899 152.445C344.991 154.725 348.336 165.446 349.017 168.336L367.395 174.723L367.251 194.832L348.817 201.61L344.977 216.911C348.388 222.179 352.774 226.74 356.947 231.405L347.083 248.665L328.4 244.025C323.877 247.268 320.116 251.503 316.251 255.484C316.475 261.619 318.913 268.403 320.478 274.363L302.454 283.322L288.983 271.627L272.162 275.92C270.453 276.764 269.326 282.536 268.718 284.504L265.67 292.588C259.512 293.127 253.168 292.62 246.994 292.433L241.426 275.838L224.694 271.04L211.407 283.391L193.253 272.519L196.835 255.75L185.377 244.131L167.743 248.847L157.122 230.261C160.092 225.827 164.302 221.815 167.868 217.828L163.92 202.253C158.5 200.4 152.602 198.787 147.429 196.374L146.834 175.389L163.149 169.809L167.122 152.659C163.98 148.047 160.32 144.17 156.471 140.161L167.434 120.98L183.355 125.84C187.131 120.727 191.597 116.409 196.111 111.961L193.12 94.9022L212.542 85.0073C216.166 89.0718 219.715 92.661 223.979 96.0788L240.255 91.9702L245.632 76.2976ZM249.152 125.449C231.735 128.604 216.684 136.321 206.4 151.162C197.915 163.408 194.053 179.679 196.952 194.37C200.117 210.412 209.975 224.823 223.637 233.729C234.679 240.926 248.066 244.443 261.172 242.977C279.056 239.625 294.703 232.411 305.171 216.887C314.214 203.477 317.216 187.436 314.03 171.641C311.064 156.941 301.658 143.23 289.039 135.099C277.17 127.452 263.272 123.879 249.152 125.449Z"/>
	<path fill="#242424" d="M1283.5 73.1429L1325.31 72.8613C1329.03 73.0317 1331.03 73.7813 1333.53 76.5187C1334.94 79.8403 1334.27 85.1166 1334.28 88.7634L1334.33 114.791L1334.42 212.289L1334.51 246.526C1334.52 251.637 1335.21 258.225 1334.02 263.162C1332.19 270.701 1317.96 268.583 1312.08 268.554L1200.65 268.343L1182.06 268.308C1181.03 268.306 1177.39 267.929 1176.59 268.297C1175.71 268.705 1173.34 272.197 1172.6 273.076L1160.29 287.016C1157.79 289.797 1155.39 292.871 1152.19 294.874C1151.47 298.507 1145.31 303.492 1142.52 306.169L1142.27 268.516L1126.04 268.457C1123.11 268.427 1119.74 268.703 1117.06 267.305C1115.31 266.388 1113.87 264.843 1113.29 262.939C1111.99 258.669 1112.91 251.366 1112.91 246.88L1112.93 206.085L1113 119.952L1112.88 81.6532C1112.93 79.5637 1113.08 78.0321 1114.04 76.1436C1115.38 74.986 1116.75 73.7506 1118.56 73.4816C1123.53 72.7436 1129.46 73.3369 1134.52 73.3324L1167.21 73.3172L1283.5 73.1429Z"/>
	<path fill="#FEFEFE" d="M1216.17 126.405C1227.52 125.318 1239.42 125.967 1250.83 126.046C1253.76 126.066 1259.32 125.44 1261.92 126.394C1263.48 126.964 1263.59 128.029 1264.16 129.407L1261.67 131.196C1259.15 132.962 1252.76 132.007 1249.53 132.072C1239.28 132.277 1228.96 133.22 1218.75 131.96C1216.31 130.056 1216.58 129.336 1216.17 126.405Z"/>
	<path fill="#FEFEFE" d="M1252.81 107.651C1259.83 107.118 1266.8 107.818 1273.82 107.836C1281.19 107.855 1295.92 105.39 1301.77 109.712L1302.08 112.152C1298.91 114.515 1296.7 114.028 1292.81 114.2C1283.38 115.012 1273.72 114.2 1264.26 114.092C1258.95 114.03 1253.64 114.848 1248.38 113.942C1246.84 112.285 1246.87 112.353 1246.96 110.092C1248.76 107.864 1250.07 108.109 1252.81 107.651Z"/>
	<path fill="#FEFEFE" d="M1247.68 162.414L1249.48 162.23C1255.25 161.746 1295.77 160.829 1299.75 162.887C1300.44 163.245 1301.26 164.148 1301.88 164.665L1301.62 166.775L1298.42 168.36L1298.03 168.519C1294 169.304 1252.09 169.647 1249.5 168.656C1248.82 168.396 1247.97 167.643 1247.34 167.227C1246.34 164.924 1246.83 164.683 1247.68 162.414Z"/>
	<path fill="#FEFEFE" d="M1192.04 196.921C1195.09 196.775 1198.49 196.378 1201.51 196.746C1203.91 197.037 1204.44 197.439 1205.87 199.174L1205.62 201.527C1200.65 205.788 1163.96 203.306 1155.56 203.274C1152.39 203.09 1145.88 203.537 1143.38 201.723C1143.13 199.796 1143.15 199.444 1143.93 197.673C1148.77 196.571 1154.1 197.164 1159.05 197.194C1169.99 197.261 1181.13 197.739 1192.04 196.921Z"/>
	<path fill="#FEFEFE" d="M1143.53 126.405C1156.07 125.047 1169.29 125.924 1181.92 125.936C1188.57 125.943 1196.38 125.15 1202.91 126.087C1204.95 126.379 1204.89 126.667 1206.09 128.281L1205.78 130.157L1202.89 131.658C1199.83 132.82 1194.07 132.41 1190.74 132.485C1176.53 132.805 1161.47 132.867 1147.31 131.81C1144.81 131.623 1144.85 131.523 1143.26 129.65L1143.53 126.405Z"/>
	<path fill="#FEFEFE" d="M1148.56 107.65C1159.53 106.984 1170.81 107.958 1181.83 107.999L1218.04 108.107C1221.97 108.119 1228.58 107.347 1232.27 108.401C1232.79 108.55 1233.83 109.545 1234.32 109.902L1234.51 111.777C1231.48 114.373 1229.96 113.922 1226.06 114.16L1163.62 114.042C1158.09 113.927 1148.42 114.982 1143.45 112.903C1143.17 110.781 1143.25 110.433 1144.12 108.475L1148.56 107.65Z"/>
	<path fill="#FEFEFE" d="M1146.93 162.413C1155.37 161.546 1164.69 162.723 1173.28 162.708L1226.13 162.029C1229.27 162.033 1232.69 162.012 1235.03 164.367C1234.9 166.431 1234.55 166.73 1233.38 168.355L1229.1 168.782C1211.59 170.612 1193.58 168.871 1176.01 168.786C1169.22 168.754 1149.61 170.531 1144.66 167.934C1143.38 167.266 1143.53 166.774 1143.13 165.415C1144.27 163.267 1144.63 163.342 1146.93 162.413Z"/>
	<path fill="#FEFEFE" d="M1142.54 179.667C1146.88 178.809 1151.19 179.208 1155.58 179.219L1176.13 179.234L1257.38 179.337C1258.91 180.845 1259 180.697 1259.07 182.99L1256.41 184.809C1254.9 185.572 1252.7 185.276 1250.98 185.295L1236.77 185.45L1144.88 185.083C1142.89 183.405 1143.03 182.087 1142.54 179.667Z"/>
	<path fill="#242424" d="M823.851 933.262L1218.9 933.416C1213.21 930.087 1207.24 927.177 1202.52 922.458C1196.07 916.006 1191.91 907.641 1190.1 898.734C1188.26 889.691 1189.58 878.549 1189.65 869.226L1189.72 819.25L1377.64 819.936L1377.72 863.437C1377.83 876.594 1379.64 892.433 1375.75 905.089C1371.27 919.648 1360.97 926.98 1348.28 933.875C1355 934.492 1362.02 934.081 1368.77 934.059L1404.96 933.894C1414.01 933.81 1432.47 930.936 1439.75 936.47C1441.33 938.764 1442 941.399 1441.31 944.155C1440.82 946.151 1439.06 947.995 1437.23 948.847C1434.89 949.931 1431.79 949.617 1429.27 949.636L1412.02 949.633L1351.98 949.662L1089.38 949.736L320.859 949.635L157.838 949.635L117.591 949.604C111.651 949.596 103.422 950.61 97.875 948.844C96.0619 947.371 94.1515 945.781 93.697 943.355C93.2587 941.015 93.6873 938.125 95.1585 936.229C96.1886 934.901 97.8094 934.121 99.4345 933.82C106.397 932.534 114.161 933.327 121.246 933.42L165.196 933.567C172.453 933.576 180.588 934.313 187.744 933.217L188.307 933.122L191.442 933.178L255.45 933.429C263.884 933.431 273.251 932.639 281.575 933.61L371.85 933.286L400.629 933.329C405.795 933.339 411.29 932.978 416.416 933.527L512.946 933.31L593.313 933.44L593.086 892.113L611.882 891.994L646.988 891.81C660.186 890.384 673.774 891.342 687.021 891.363L754.306 891.205L807.692 891.143L808.939 892.102C806.444 894.945 803.647 897.713 802.394 901.345L802.139 902.057C800.758 906.222 801.833 910.804 803.853 914.552C806.043 918.616 809.892 921.763 814.34 923.037C817.332 923.894 820.531 923.286 823.549 922.853L823.851 933.262Z"/>
	<path fill="#4F464D" d="M807.692 891.143L808.939 892.102C806.444 894.945 803.647 897.713 802.394 901.345L802.139 902.057C800.758 906.222 801.833 910.804 803.853 914.552C806.043 918.616 809.892 921.763 814.34 923.037C817.332 923.894 820.531 923.286 823.549 922.853L823.851 933.262L776.21 933.22C768.837 933.207 760.395 934.048 753.227 932.713C753.592 932.26 754.098 931.89 754.323 931.352C754.86 930.072 754.32 924.928 754.32 923.246L754.306 891.205L807.692 891.143Z"/>
	<path fill="#BDBF4D" d="M611.882 891.994L646.988 891.81L659.113 892.055L659.248 932.616L622.465 932.672C612.726 932.601 602.993 932.15 593.313 933.44L593.086 892.113L611.882 891.994Z"/>
	<path fill="#8CBB59" d="M646.988 891.81C660.186 890.384 673.774 891.342 687.021 891.363L754.306 891.205L754.32 923.246C754.32 924.928 754.86 930.072 754.323 931.352C754.098 931.89 753.592 932.26 753.227 932.713L659.248 932.616L659.113 892.055L646.988 891.81Z"/>
	<path fill="#242424" d="M313.493 775.902L313.418 717.54C313.388 715.429 306.168 713.449 304.114 712.607L222.447 679.285C208.999 673.912 194.719 669.69 181.78 663.206C176.776 660.699 171.904 657.417 167.834 653.561C160.096 646.23 156.266 635.33 156.076 624.832C155.882 614.12 160.218 603.082 167.832 595.491C174.999 588.347 183.518 582.443 191.396 576.105L230.742 544.147L298.155 489.554L328.129 465.614C331.501 463.161 335.428 461.092 339.332 459.619C349.442 455.805 360.363 455.789 371.001 455.776L400.489 455.841L407.576 415.395C404.647 413.998 401.466 412.539 399.284 410.054C395.688 405.959 393.89 399.34 396.37 394.278C396.859 393.279 398.914 390.41 398.984 389.516C399.107 387.921 398.272 385.222 398.009 383.576C397.136 378.097 396.074 372.684 396.546 367.109C397.191 359.477 401.085 352.229 407.017 347.383C420.889 336.052 439.078 346.04 454.5 347.293C467.213 348.327 475.514 345.547 485.244 337.222L485.842 337.47C487.232 340.031 488.796 342.694 489.818 345.425C492.318 352.101 492.112 360.018 489.022 366.464C485.202 374.435 479.637 377.377 471.603 380.193C471.602 393.333 474.82 410.665 468.938 422.818C464.328 432.345 455.907 436.948 446.339 440.374L447.049 455.257L478.458 455.526C502.7 456.117 519.695 471.14 535.444 487.733L535.241 277.363C527.514 277.472 516.538 279.048 509.79 274.896L535.195 274.527C534.192 264.549 534.897 254.191 534.914 244.159L534.962 187.244C524.465 185.842 514.639 183.217 505.922 176.891C493.488 167.867 485.035 154.358 482.658 139.159C480.313 124.168 483.726 108.325 492.885 96.089C502.542 83.1876 516.626 75.8503 532.379 73.6936C545.952 71.8355 562.227 76.2847 572.959 84.6635C585.027 94.0853 593.453 107.714 595.304 123.025C597.126 138.104 592.467 153.879 583.071 165.742C571.658 180.151 555.808 185.204 538.284 187.177L537.961 274.544C543.439 274.359 550.946 273.558 556.125 275.127L556.461 276.067C554.016 277.846 541.563 277.086 537.943 277.177L538.363 430.143L538.325 474.967C538.36 480.168 537.705 485.511 538.202 490.683C538.774 496.627 545.75 504.781 548.392 510.708C555.139 525.844 558.884 540.978 559.988 557.493L651.201 557.403L672.921 557.408C675.674 557.416 679.555 556.95 682.166 557.752C684.603 558.5 687.037 561.138 688.201 563.345C689.439 565.692 689.552 567.731 688.737 570.21C686.345 577.485 683.016 586.786 679.067 593.297L678.171 595.083C676.976 600.683 674.524 606.075 672.458 611.411L662.173 637.656C657.531 649.52 653.629 662.477 647.934 673.82L648.141 676.227L647.41 676.894C645.323 678.968 644.426 684.013 643.489 686.879C640.553 695.85 637.488 704.709 633.639 713.338C632.673 715.504 631.45 718.856 629.25 720.012C628.266 720.529 625.841 720.672 624.75 720.731L515.256 720.813C515.269 730.312 516.979 769.804 514.105 775.989L433.664 775.876C431.521 779.421 430.299 783.819 428.849 787.697L421.159 808.089C419.738 811.959 417.451 816.221 416.575 820.155L414.965 813.765C417.945 800.461 423.465 788.137 428.854 775.663L313.493 775.902ZM500.904 561.915C497.766 563.994 494.963 565.794 492.929 569.062C490.648 572.728 489.266 577.542 487.731 581.574L479.261 603.679L447.553 684.507L441.356 701.083C440.339 703.936 439.363 707.794 437.798 710.303C437.081 711.453 434.679 712.061 433.444 712.299L434.176 714.549C438.292 715.774 444.336 715.046 448.668 715.068L482.372 715.208L617.625 715.72L627.749 715.699L667.404 611.865C672.446 598.674 678.754 585.775 683.193 572.39C683.966 570.059 684.455 567.73 684.208 565.263C683.004 563.437 682.778 562.756 680.484 562.344C675.198 561.392 668.739 562.073 663.321 562.06L624.996 561.976L500.904 561.915ZM432.021 371.134C430.907 377.059 430.698 390.114 425.756 393.59C424.494 394.478 423.011 395.226 421.497 394.803C415.639 393.167 413.378 385.479 405.829 389.744C402.579 391.58 400.668 394.01 399.932 397.713C399.437 400.205 400.392 403.653 401.802 405.726C404.591 409.828 411.301 410.108 415.782 410.872C414.596 412.725 413.044 414.881 412.419 416.996C410.457 423.638 406.958 457.704 403.125 460.713C402.907 460.884 401.594 461.205 401.25 461.287L398.81 461.738C398.495 465.227 400.959 468.931 403.125 471.498C408.439 477.793 416.941 483.238 425.327 483.77C433.658 484.3 441.321 480.687 447.61 475.539C451.22 470.669 453.156 466.047 455.169 460.403L443.229 460.536L440.891 441.084C433.37 439.667 426.41 437.549 421.875 430.886C420.76 429.247 420.067 428.069 420.375 426.074C421.497 425.615 422.175 425.042 423.377 425.584C424.783 426.218 426.424 428.419 427.579 429.567C433.156 435.112 440.721 436.63 448.254 434.51C454.901 432.638 460.572 428.461 463.914 422.376C467.804 415.291 467.294 407.742 467.14 399.967L466.66 379.863C461.414 378.671 456.061 377.552 450.937 375.917C444.541 373.877 438.851 371.324 432.021 371.134ZM360.574 686.434L344.794 718.517L368.066 735.582C372.674 738.934 378.031 743.499 383.695 744.738C390.32 746.189 399.358 744.562 406.125 744.128C407.916 742.985 410.034 741.768 410.503 739.512L410.625 738.198C405.774 735.752 397.272 738.896 395.35 733.304C397.798 731.031 400.049 731.165 403.361 731.3C407.811 731.483 415.117 733.353 418.688 730.356C420.143 729.135 419.96 728.299 420.203 726.552C419.555 726.043 418.465 724.907 417.75 724.623C413.196 722.815 402.048 727.567 399.344 722.006C401.245 720.055 403.305 719.504 406.078 719.468L407.062 719.472C413.96 719.467 423.647 721.057 428.828 716.05C427.617 714.099 427.462 713.05 425.181 712.448C422.536 711.749 418.531 712.312 415.704 712.359L394.549 712.587C391.613 712.591 388.179 713.041 385.575 711.549L385.031 709.298C387.885 706.433 391.219 706.877 395.088 706.87L434.897 707.13L440.469 691.592L392.897 691.568C386.018 691.569 377.796 692.561 371.117 691.261C367.571 690.571 363.733 688.149 360.574 686.434ZM312.796 568.709L247.274 621.311L267.82 630.146L312.716 650.335L312.796 568.709ZM350.814 676.969L329.753 720.771L337.027 724.699L358.49 680.123L350.814 676.969Z"/>
	<path fill="#BDBF4D" d="M535.853 87.9518C543.958 87.3179 552.144 89.3465 559.156 93.5256C569.576 99.7358 576.993 109.059 579.924 120.912C582.308 130.553 579.965 143.269 574.691 151.73C567.28 163.62 555.593 169.246 542.428 172.439C532.497 172.765 522.848 170.511 514.572 164.91C505.998 159.106 499.331 148.88 497.527 138.685C495.435 126.863 497.823 115.466 504.842 105.588C512.714 94.5067 522.867 90.2538 535.853 87.9518Z"/>
	<path fill="#FEFEFE" d="M560.274 114.913C562.913 117.893 565.004 121.476 567.2 124.796L537.295 148.786L523.865 140.519L515.055 134.679C516.174 131.559 519.925 128.03 522.064 125.423L536.426 134.413L560.274 114.913Z"/>
	<path fill="#242424" d="M573.388 625.064C575.494 625.284 577.81 625.434 579.769 626.281C582.087 627.283 583.89 629.339 584.625 631.756C585.647 635.119 584.803 638.972 583.169 641.993C579.89 648.055 573.992 650.955 567.657 652.832C564.878 652.723 561.997 652.608 559.5 651.229C557.338 650.034 555.651 647.572 555.123 645.158C554.344 641.6 555.682 637.667 557.585 634.683C561.148 629.099 567.168 626.445 573.388 625.064Z"/>
</svg>
